<?xml version="1.0" encoding="UTF-8"?>
<svg id="Layer_1" data-name="Layer 1" xmlns="http://www.w3.org/2000/svg" viewBox="0 0 107.83 39.9">
  <defs>
    <style>
      .cls-1 {
        fill: #0b4990;
      }
    </style>
  </defs>
  <path class="cls-1" d="M4.24,21.21l1.26-4.2h4.96l1.18,4.2h4.6L11.66,5.18c-.26-.95-.84-1.38-1.83-1.38H3.32v1.51h.55c.68,0,1.05.27,1.05.79,0,.34-.08.63-.35,1.41L0,21.21M9.83,14.16h-3.68l1.96-6.4,1.72,6.4Z"/>
  <path class="cls-1" d="M21.52,21.21V5.13c0-.84-.49-1.34-1.3-1.34h-4.02v1.51h.26c.68,0,.96.29.96.97v14.93"/>
  <path class="cls-1" d="M28.49,21.21V5.13c0-.84-.5-1.34-1.31-1.34h-4.02v1.51h.26c.68,0,.97.29.97.97v14.93"/>
  <path class="cls-1" d="M35.56,21.21v-11.73c0-.84-.5-1.33-1.31-1.33h-3.97v1.49h.23c.68,0,.97.31.97.99v10.58M35.64,5.38c0-1.17-.87-1.87-2.35-1.87s-2.35.71-2.35,1.87.89,1.88,2.35,1.88,2.35-.7,2.35-1.88"/>
  <path class="cls-1" d="M39.03,11.89c1.36-.65,2.85-1.02,4.02-1.02,1.1,0,1.49.39,1.49,1.53v.29c-1.67.26-2.19.37-3.14.58-.54.13-1.05.28-1.54.49-1.65.66-2.42,1.93-2.42,3.89,0,2.48,1.07,3.68,3.29,3.68.81,0,1.54-.16,2.2-.41.57-.25.91-.47,1.75-1.12v.18c0,.81.41,1.22,1.23,1.22h3.73v-1.4h-.18c-.7,0-.96-.32-.96-1.15v-6.22c0-3.31-1.15-4.47-4.47-4.47-1.07,0-2.11.14-3.13.37-1.02.23-1.55.44-2.77,1.04M44.54,14.94v2.54c-.68.7-1.52,1.13-2.22,1.13s-.99-.36-.99-1.34.2-1.41.94-1.69c.55-.24,1.25-.45,2.27-.64"/>
  <path class="cls-1" d="M55.58,21.21v-8.83c.68-.76,1.38-1.1,2.19-1.1.87,0,1.07.34,1.07,1.65v8.27h4.07v-8.88c0-2.07-.15-2.72-.81-3.42-.55-.61-1.38-.91-2.46-.91-1.59,0-2.72.49-4.22,1.91v-.52c0-.81-.42-1.23-1.26-1.23h-3.87v1.49h.24c.68,0,.97.31.97.99v10.58"/>
  <path class="cls-1" d="M75.01,18.47h-5.69l5.43-7.62v-2.7h-8.51c-.97,0-1.41.44-1.41,1.41v2.37h1.51v-.23c0-.6.31-.89.96-.89h2.93l-5.48,7.7v2.69h10.26"/>
  <path class="cls-1" d="M107.83,13.38c0-7.65-5.72-13.38-13.37-13.38s-13.38,5.73-13.38,13.38,5.72,13.37,13.38,13.37,13.37-5.71,13.37-13.37M105.56,13.38c0,6.5-4.68,11.23-11.1,11.23s-11.1-4.73-11.1-11.23,4.68-11.23,11.1-11.23,11.1,4.76,11.1,11.23M90.83,20.88V7.81h-2.27c-1.12,0-1.57.42-1.57,1.57v11.49h3.84ZM98.1,20.88h3.84v-11.49c0-1.15-.45-1.57-1.57-1.57h-2.27v13.06ZM96.39,20.88V6.12c0-1.18-.42-1.57-1.56-1.57h-3.45v1.65h.21c.79,0,.94.18.94,1.13v13.56h3.87Z"/>
  <path class="cls-1" d="M4.64,39.85c-2.87,0-4.47-1.91-4.47-4.99,0-1.06.13-2.24.74-3.3.78-1.35,2.14-2.14,4.11-2.14,1.85,0,2.72.62,2.72.62v1.36s-.75-.84-2.71-.84c-2.56,0-3.45,1.91-3.45,4.05,0,2.78,1.09,4.12,3.26,4.12.97,0,1.5-.26,1.5-.26v-3.27h1.39v3.84s-.85.81-3.1.81"/>
  <polyline class="cls-1" points="9.72 39.72 9.72 28.78 11.08 28.58 11.08 39.72"/>
  <path class="cls-1" d="M15.9,33.17c-1.26,0-1.8,1-1.8,2.85,0,1.58.41,2.84,1.8,2.84,1.24,0,1.79-1.01,1.79-2.85,0-1.58-.41-2.84-1.79-2.84M15.84,39.9c-1.9,0-3.11-1.32-3.11-3.78s1.04-3.99,3.23-3.99c1.9,0,3.11,1.32,3.11,3.78s-1.04,3.99-3.23,3.99"/>
  <path class="cls-1" d="M23.6,33.25c-.91,0-1.52.52-1.52,1.4v3.65s.42.51,1.38.51c1.33,0,1.97-.93,1.97-2.82,0-2.06-.69-2.73-1.82-2.73M23.64,39.84c-1.17,0-1.78-.59-1.78-.59l-1.14.59v-11.06l1.36-.2v4.52s.52-.97,1.91-.97c1.91,0,2.82,1.56,2.82,3.69,0,3.24-1.65,4.02-3.17,4.02"/>
  <path class="cls-1" d="M32.04,36.02l-.87.07c-1.07.09-1.87.3-1.87,1.45,0,.54.25,1.23,1.29,1.23.83,0,1.45-.58,1.45-1.36M32.07,39.78v-.97s-.45,1.01-1.98,1.01-2.13-1.08-2.13-2.21c0-2.27,1.97-2.37,3.18-2.43l.88-.04v-.59c0-.56-.01-1.4-1.46-1.4-1.27,0-1.87.74-1.87.74v-1.16s.61-.58,2.2-.58c2.39,0,2.46,1.42,2.46,2.4v5.12l-1.29.12Z"/>
  <polyline class="cls-1" points="35.41 39.72 35.41 28.78 36.77 28.58 36.77 39.72"/>
  <rect class="cls-1" x="41.89" y="29.55" width="1.4" height="10.17"/>
  <path class="cls-1" d="M49.9,39.72v-4.52c0-.85-.03-1.94-1.55-1.94-.68,0-1.58.38-1.58,1.4v5.05h-1.36v-7.48h1.33v.93s.55-1.04,2.11-1.04c.78,0,1.32.25,1.68.58.69.64.71,1.59.71,2.2v4.82"/>
  <path class="cls-1" d="M56.13,39.78h-1.37l-2.52-7.54h1.42l1.51,4.82c.22.72.35,1.37.35,1.37,0,0,.12-.59.36-1.36l1.53-4.83h1.3"/>
  <path class="cls-1" d="M62.41,33.08c-1.54,0-1.71,1.5-1.71,2.1h3.27c0-1.01-.23-2.1-1.56-2.1M60.68,36.15c0,1.54.41,2.68,2.29,2.68,1.35,0,2.03-.74,2.03-.74l-.09,1.22s-.62.55-2.29.55c-1.49,0-3.3-.58-3.3-3.79,0-2.3.98-3.94,3.16-3.94,2.52,0,2.85,2.11,2.85,3.79v.23h-4.65Z"/>
  <path class="cls-1" d="M68.53,39.84c-1.42,0-2.07-.58-2.07-.58l-.07-1.23s.71.8,2.1.8c.77,0,1.35-.25,1.35-.97,0-.56-.22-.77-.96-1.17l-.81-.45c-.7-.38-1.49-.87-1.49-2.08,0-1.78,1.46-2.03,2.37-2.03,1.24,0,1.85.55,1.85.55v1.18s-.67-.72-1.79-.72c-1.06,0-1.17.61-1.17.9,0,.67.36.84.99,1.16l.82.42c.77.39,1.46.9,1.46,2.06,0,1.82-1.49,2.17-2.58,2.17"/>
  <path class="cls-1" d="M75.96,39.58s-.39.25-1.2.25c-.64,0-1.19-.13-1.56-.68-.3-.42-.33-.94-.33-1.71v-4.2h-.78v-1h.78v-1.32l1.35-.32v1.64h1.78v1h-1.78v4.33c0,.39.04.68.16.87.14.22.38.36.74.36.65,0,.91-.29.91-.29"/>
  <path class="cls-1" d="M80.1,33.17c-1.26,0-1.8,1-1.8,2.85,0,1.58.41,2.84,1.8,2.84,1.24,0,1.79-1.01,1.79-2.85,0-1.58-.41-2.84-1.79-2.84M80.04,39.9c-1.9,0-3.11-1.32-3.11-3.78s1.04-3.99,3.23-3.99c1.89,0,3.11,1.32,3.11,3.78s-1.04,3.99-3.23,3.99"/>
  <path class="cls-1" d="M88.75,33.6s-.32-.33-1.07-.33c-1.04,0-1.4.9-1.4,1.68v4.78h-1.36v-7.48h1.32v1.06s.43-1.17,1.66-1.17c.65,0,.98.26.98.26"/>
  <path class="cls-1" d="M91.6,39.84c-1.42,0-2.07-.58-2.07-.58l-.07-1.23s.71.8,2.1.8c.77,0,1.34-.25,1.34-.97,0-.56-.22-.77-.96-1.17l-.81-.45c-.69-.38-1.49-.87-1.49-2.08,0-1.78,1.46-2.03,2.37-2.03,1.24,0,1.85.55,1.85.55v1.18s-.67-.72-1.8-.72c-1.06,0-1.17.61-1.17.9,0,.67.36.84.98,1.16l.83.42c.77.39,1.46.9,1.46,2.06,0,1.82-1.49,2.17-2.58,2.17"/>
</svg>