<?xml version="1.0" encoding="utf-8"?>
<!-- Generator: Adobe Illustrator 27.6.1, SVG Export Plug-In . SVG Version: 6.00 Build 0)  -->
<svg version="1.1" id="Layer_1" xmlns="http://www.w3.org/2000/svg" xmlns:xlink="http://www.w3.org/1999/xlink" x="0px" y="0px"
	 viewBox="0 0 152 47.16" style="enable-background:new 0 0 152 47.16;" xml:space="preserve">
<g id="Nav-IRELAND">
	<g id="BlackRock_Wordmark_Blk_RGB">
		<path id="Shape" d="M19.34,33.94V12.81h4.81v21.13H19.34z M112.88,26.04c0-5.11-3.96-8.27-8.6-8.27c-4.67,0-8.6,3.2-8.6,8.27
			c0,5.11,3.96,8.3,8.6,8.3C108.92,34.35,112.88,31.12,112.88,26.04z M108.13,26.04c0,2.67-1.79,4.17-3.87,4.17
			c-2.08,0-3.87-1.5-3.87-4.17c0-2.7,1.79-4.14,3.87-4.14C106.34,21.91,108.13,23.34,108.13,26.04z M17.4,27.86
			c0-2.38-1.23-4.2-3.43-5.02c2.08-1.14,2.82-2.64,2.82-4.4c0-3.08-2.23-5.63-7.22-5.6H0v21.13h9.98
			C14.99,33.94,17.4,31.44,17.4,27.86z M11.68,19.06c0,1.44-0.91,2.26-2.67,2.26H5.02v-4.4h3.99
			C10.62,16.92,11.68,17.62,11.68,19.06z M12.12,27.54c0,1.38-0.97,2.29-2.76,2.29H5.02v-4.58h4.34
			C11.09,25.25,12.12,26.13,12.12,27.54z M59.3,22.08c-1.32-2.76-3.79-4.28-7.51-4.28c-4.4,0-8.33,2.76-8.33,8.25
			c0,5.34,3.46,8.3,8.27,8.3c3.37,0,6.22-1.35,7.57-4.25l-3.87-2c-0.7,1.29-1.79,2.11-3.52,2.11c-2.23,0-3.67-1.58-3.67-4.17
			s1.64-4.14,3.64-4.14c1.56,0,2.73,0.7,3.46,2.23L59.3,22.08z M130.23,22.08c-1.32-2.76-3.79-4.28-7.51-4.28
			c-4.4,0-8.33,2.76-8.33,8.25c0,5.34,3.46,8.3,8.27,8.3c3.37,0,6.22-1.35,7.57-4.25l-3.87-2c-0.7,1.29-1.79,2.11-3.52,2.11
			c-2.23,0-3.67-1.58-3.67-4.17s1.64-4.14,3.64-4.14c1.56,0,2.73,0.7,3.46,2.23L130.23,22.08z M89.88,33.94l-4.02-7.1h-3.08v7.1
			h-4.96V12.81h8.95c4.84,0,8.22,2.32,8.22,6.87c0,2.91-1.44,4.96-3.99,6.22l4.64,8.04H89.88z M82.81,22.64h3.7
			c2.29,0,3.4-1.29,3.4-2.82c0-1.82-1.06-2.82-3.4-2.82h-3.7V22.64z M42.67,33.67v-3.32c-0.21,0.06-0.5,0.12-0.82,0.12
			c-0.62,0-0.94-0.32-0.94-0.88v-5.49c0-4.11-2.76-6.28-7.31-6.28c-2.96,0-5.49,1.09-7.07,2.49l2.67,2.99
			c1.06-0.94,2.46-1.53,3.84-1.53c2.11,0,3.11,1.06,3.11,2.79v0.5c-1-0.23-2.26-0.47-3.79-0.47c-3.84,0-6.34,1.85-6.34,4.9
			c0,3.14,2.08,4.78,5.31,4.78c2.2,0,4.17-0.91,5.19-2.08c0.62,1.56,1.97,1.97,3.29,1.97C40.73,34.2,41.79,34.05,42.67,33.67z
			 M36.18,28.71c0,1.44-1.38,2.38-2.96,2.38c-1.5,0-2.23-0.76-2.23-1.82c0-1.12,0.82-1.94,2.49-1.94c1.03,0,1.94,0.18,2.7,0.35
			V28.71z M147.42,33.94l-5.66-9.83l5.31-5.78h-5.34l-5.6,6.22V12.84h-4.78v21.13h4.78v-3.81l2.29-2.44l3.58,6.25h5.43V33.94z
			 M76.56,33.94l-5.66-9.83l5.31-5.78h-5.4l-5.55,6.22V12.84h-4.78v21.13h4.78v-3.81l2.29-2.44l3.58,6.25h5.43V33.94z M150.36,31
			c1,0,1.58,0.62,1.58,1.56s-0.59,1.56-1.58,1.56c-1,0-1.58-0.62-1.58-1.56S149.36,31,150.36,31z M150.36,33.91
			c0.79,0,1.32-0.47,1.32-1.35c0-0.88-0.56-1.35-1.32-1.35c-0.79,0-1.32,0.47-1.32,1.35C149.01,33.47,149.56,33.91,150.36,33.91z
			 M149.74,31.76h0.65c0.38,0,0.59,0.21,0.59,0.5c0,0.26-0.12,0.41-0.32,0.5l0.29,0.56h-0.29l-0.26-0.5h-0.35v0.5h-0.29V31.76z
			 M150.03,32v0.56h0.32c0.21,0,0.32-0.06,0.32-0.26c0-0.18-0.09-0.26-0.29-0.26h-0.35V32z"/>
	</g>
</g>
</svg>
