<?xml version="1.0" encoding="utf-8"?>
<!-- Generator: Adobe Illustrator 27.6.1, SVG Export Plug-In . SVG Version: 6.00 Build 0)  -->
<svg version="1.1"
	 id="svg2" xmlns:dc="http://purl.org/dc/elements/1.1/" xmlns:cc="http://creativecommons.org/ns#" xmlns:rdf="http://www.w3.org/1999/02/22-rdf-syntax-ns#" xmlns:svg="http://www.w3.org/2000/svg"
	 xmlns="http://www.w3.org/2000/svg" xmlns:xlink="http://www.w3.org/1999/xlink" x="0px" y="0px" viewBox="0 0 555.75 121.25"
	 style="enable-background:new 0 0 555.75 121.25;" xml:space="preserve">
<style type="text/css">
	.st0{fill:url(#SVGID_1_);}
	.st1{fill:url(#SVGID_00000155113396107408923720000003060096698411136128_);}
	.st2{fill:url(#SVGID_00000137098960714567388690000015744450757057695386_);}
	.st3{fill:url(#SVGID_00000129895768036794140100000010392906325613791663_);}
	.st4{fill:url(#SVGID_00000072262545627705132300000007036830426117422214_);}
	.st5{fill:url(#SVGID_00000073695305181947936810000007346787047301922951_);}
	.st6{fill:#FFFFFF;}
</style>
<g>
	<g transform="matrix(1.25 0 0 -1.25 -52.7 106.32)">
		
			<linearGradient id="SVGID_1_" gradientUnits="userSpaceOnUse" x1="-162.5158" y1="-1137.6193" x2="-161.6287" y2="-1137.6193" gradientTransform="matrix(0 -183.4427 -183.4427 0 -208596.4844 -29724.8262)">
			<stop  offset="0" style="stop-color:#007348"/>
			<stop  offset="0.6" style="stop-color:#8DC9AB"/>
			<stop  offset="1" style="stop-color:#00925B"/>
		</linearGradient>
		<path class="st0" d="M42.16-11.94h98.7v97h-98.7V-11.94z"/>
		
			<linearGradient id="SVGID_00000057122336961824533620000007687920306623351458_" gradientUnits="userSpaceOnUse" x1="-162.9796" y1="-1137.8485" x2="-162.0925" y2="-1137.8485" gradientTransform="matrix(0 -206.1393 -206.1393 0 -234463.9531 -33486.8945)">
			<stop  offset="0" style="stop-color:#00925B"/>
			<stop  offset="0.3" style="stop-color:#8DC9AB"/>
			<stop  offset="0.55" style="stop-color:#00925B"/>
			<stop  offset="0.835" style="stop-color:#007348"/>
			<stop  offset="1" style="stop-color:#009C6D"/>
		</linearGradient>
		<path style="fill:url(#SVGID_00000057122336961824533620000007687920306623351458_);" d="M49.86,83.36c-1.9,0-3.2-1.6-3.5-3.9
			c-0.3-2.3-2.5-13-2.5-40.5s2.5-45.5,2.5-45.5c0.2-2.2,1.5-3.9,3.5-3.9h85.4c1.9,0,3.4,1.5,3.5,3.9s-0.9,21.1-0.9,41.7
			s0.9,44.3,0.9,44.3c0,2.1-1.5,3.9-3.5,3.9C135.26,83.36,49.86,83.36,49.86,83.36z"/>
		
			<linearGradient id="SVGID_00000165921962438151631620000007318774904872287416_" gradientUnits="userSpaceOnUse" x1="-172.7306" y1="-1142.587" x2="-171.8435" y2="-1142.587" gradientTransform="matrix(0 133.3965 133.3965 0 152527.1719 23040.6855)">
			<stop  offset="0" style="stop-color:#00A678"/>
			<stop  offset="1" style="stop-color:#00925B"/>
		</linearGradient>
		<path style="fill:url(#SVGID_00000165921962438151631620000007318774904872287416_);" d="M97.86,73.46c2.7-1.1,13.5-7,14.8-8.9
			c-5.4-0.7-16.1-3.5-21.9-6.3l-0.3-0.7c6.3,1.4,15.2,2.1,21.3,2.5c-2.3-3.4-3.8-4.9-7.3-8.7l-0.3-0.7c6.6,4,8.5,4.3,14.6,7.8
			c2.3-3.4,2.9-11.3,2.9-17.5c2,3.9,4.4,18.8,3.4,21.5c4,2.8,4.6,5,4.6,5c-3.7-0.3-5.8-0.4-7.8-1c-4.7,2.9-15.6,6.7-23.8,7.7
			L97.86,73.46z"/>
		
			<linearGradient id="SVGID_00000165236326834056673950000011500502921676939417_" gradientUnits="userSpaceOnUse" x1="-172.7288" y1="-1142.5411" x2="-171.8416" y2="-1142.5411" gradientTransform="matrix(0 133.4368 133.4368 0 152520.0781 23047.3945)">
			<stop  offset="0" style="stop-color:#00A678"/>
			<stop  offset="1" style="stop-color:#00925B"/>
		</linearGradient>
		<path style="fill:url(#SVGID_00000165236326834056673950000011500502921676939417_);" d="M57.36,27.26c-0.5-5-0.8-8.5,0-12.5
			c-2-0.6-3.8-0.6-5.4-1.3l-0.3-0.7c2.6-1.6,4.7-2.8,7.6-4.2c1.6-3.3,3.2-5.6,5.8-8.2l0.3,0.7c-0.5,1.9-1.1,3.5-0.8,5.5
			c3.2-0.9,6-1.4,9.7-1.6l0.3,0.7c-3.2,1.3-6.5,2.2-9.1,4.7c0.8,2.3,1.8,4.1,3.3,6.4l0.3,0.7c-2.8-0.4-5.3-1.4-7.7-1.9
			c-1.9,3.3-2.6,7.9-3.6,12.2L57.36,27.26z"/>
		
			<linearGradient id="SVGID_00000100356060087170500760000018249963353155070095_" gradientUnits="userSpaceOnUse" x1="-172.7327" y1="-1142.5615" x2="-171.8456" y2="-1142.5615" gradientTransform="matrix(0 133.3491 133.3491 0 152436.7031 23032.7949)">
			<stop  offset="0" style="stop-color:#00A678"/>
			<stop  offset="1" style="stop-color:#00925B"/>
		</linearGradient>
		<path style="fill:url(#SVGID_00000100356060087170500760000018249963353155070095_);" d="M73.96,49.86c0,0-2.1,0.2-5.5,0.1
			c-2.9-0.1-7.3-0.4-9.4-1l-0.3-0.7c3.4-0.1,8-1,9.7-2.8s-5.1-4.6-10.2-14.7c-5.1-10.1,9.2,8.6,13.1,10.7c4,2.1,2.1-6.9,3.5-10.4
			l0.3,0.7c0.4,2.2,1.4,8.3,3.1,12c1.7,3.7,0.6,0.4,3.5,0.6c2.9,0.3,7.1,0.4,15-1l0.3,0.7c-1.8,1.1-9,4.1-16.6,5.2h0.2
			c1,3.1,2.3,5.4,2.3,5.4C81.56,54.46,76.96,52.26,73.96,49.86"/>
		
			<linearGradient id="SVGID_00000103240835726367592790000000907551292832029836_" gradientUnits="userSpaceOnUse" x1="-172.7306" y1="-1142.5676" x2="-171.8435" y2="-1142.5676" gradientTransform="matrix(0 133.395 133.395 0 152503.2656 23040.4375)">
			<stop  offset="0" style="stop-color:#00A678"/>
			<stop  offset="1" style="stop-color:#00925B"/>
		</linearGradient>
		<path style="fill:url(#SVGID_00000103240835726367592790000000907551292832029836_);" d="M93.16,7.36c-0.1,1.3-0.2,2.7-0.3,4
			c-1.5-2-3-4-4.7-5.8c-1.9-0.5-4-0.5-5.9-0.5c-0.7,0-1.5,0-2.2,0l-0.3-0.7c1.8-0.9,3.6-1.5,5.5-1.9c-1.5-1.4-3.6-2.5-5-3.4
			l-0.3-0.7c3.1,0.7,7.1,2,10.2,3.8c1.6-0.1,3,0,4.1,0.2s0.3,0.7,0.3,0.7c-0.2,0.7-0.8,1.1-1,2.1c2.8,2.2,4.9,4.2,7.3,6.6l0.3,0.7
			C98.66,10.86,95.86,8.66,93.16,7.36"/>
		<path class="st6" d="M119.06,59.16c-6.1-3.6-8-3.9-14.6-7.8c3.9,4.2,5.2,6,7.6,9.5c-6.1-0.3-15-1.1-21.3-2.5
			c5.5,2.9,16.4,6.2,22.2,7c-1.3,1.8-12.2,7.7-14.9,8.8c8.6-0.7,19.1-3.9,24.1-7c2,0.6,4.1,0.7,7.8,1c-0.9-1.6-1-2.6-4.6-5
			c1-2.7-1.4-17.6-3.4-21.5C121.96,47.86,121.46,55.76,119.06,59.16 M74.46,5.76c-3.5,1.3-6,2.8-8.8,5.4c0.8,2.3,1.8,4.1,3.3,6.4
			c-2.5-0.4-4.9-0.8-7.4-1.2c-2,3.5-2.9,6.9-3.9,11.5c-0.5-5-0.7-8.5,0-12.5c-2.3-0.6-3.8-1.2-5.7-2c2.6-1.6,4.7-2.8,7.6-4.2
			c1.6-3.3,3.2-5.6,5.8-8.2c-0.6,2.2-0.8,3.9-0.5,6.2C68.06,6.46,70.86,5.96,74.46,5.76 M83.56,55.26c-1.1-1.4-2.4-4.1-2.7-5.3
			c9-1.2,16.3-5.9,16.3-5.9c-7.9,1.4-12,1.2-15,1c-2.9-0.3-3.5-0.6-3.5-0.6c-2.1-4.7-3.4-12.7-3.4-12.7c-1.4,3.5-3.5,10.4-3.5,10.4
			c-4-2.1-13.1-10.7-13.1-10.7c5,10.1,10.1,14.7,10.1,14.7c-1.8,1.8-6.4,2.7-9.7,2.8c1.7,0.7,6.2,1.5,9.7,1.7
			c3.5,0.1,5.5-0.1,5.5-0.1C77.36,52.96,81.96,55.06,83.56,55.26 M93.16,12.06c-1.5-2-3.1-4-4.7-5.8c-2.7-0.8-5.6-1.2-8.4-1.2
			c1.7-0.9,3.6-1.5,5.5-1.9c-1.7-1.5-3.4-2.9-5.3-4.1c3.1,0.7,7.1,2,10.2,3.8c1.6-0.1,3.1,0,4.1,0.3c-0.3,0.9-0.5,1.6-0.7,2.8
			c2.8,2.2,4.9,4.2,7.3,6.6c-2.4-1.7-4.9-3.2-7.6-4.4C93.36,9.36,93.26,10.76,93.16,12.06"/>
		<path d="M176.76,47.96c6-0.1,8.3-1.3,8.3-4.6c0-0.9-0.3-1.7-0.8-2.3c-1.2-1.4-3.4-2.1-6.3-1.9h-0.1l-1.7-4.4h1.7
			c3.3,0.1,6.2-1,7.7-2.8c0.7-0.8,1-1.8,1-2.8c0-3.4-3-5.2-9-5.2c-1,0-2.6,0-3.7,0c-0.1,4.2-0.2,8.4-0.2,12.7c0,2.2,0.1,7,0.2,11.1
			C174.56,47.86,175.76,47.96,176.76,47.96 M165.66,51.06c0.2-3.3,0.4-11.5,0.4-14.5c0-2.8,0-12-0.5-16v-0.3h14.5
			c7.1,0,14.6,2.2,14.6,8.5c0,4-2.9,6.9-8.2,8.5c4,1.1,6.6,3.8,6.6,6.9c0,5.2-5.9,7.1-11.5,7.2h-16L165.66,51.06z M228.06,51.36h-7
			l0.3-7.9c0.1-3.9,0.3-7.9,0.5-11.8c-0.5,1.2-0.9,1.8-3,5c0,0.1-7.3,11.4-9.9,14.6l-0.1,0.1h-8.2v-0.3c0.3-3.3,0.4-11.5,0.4-14.5
			c0-2.8,0-12-0.4-16l-0.1-0.3h7.3v0.3c-0.4,7.6-0.4,15.3-0.4,22.7c0.3-0.9,0.6-1.7,1.7-3.4c0.1-0.2,12.6-18.5,13.3-19.5l0.1-0.1
			h5.8v0.3c-0.4,4-0.5,13.3-0.5,16c0,3,0.2,11.2,0.4,14.5l0.1,0.3L228.06,51.36L228.06,51.36z M247.16,47.56
			c4.1,0.1,6.9-0.7,8.2-2.5c0.6-0.7,1-1.7,1-2.8c0-4.5-5.1-5.5-9.3-5.5l-1.7,0.1l-0.7,0.1c0,1,0,2.4,0,4c0,2,0,4.3,0.1,6.4
			C245.46,47.56,246.36,47.56,247.16,47.56 M236.46,51.06c0.3-3.3,0.4-11.5,0.4-14.5c0-2.8,0-12-0.4-16v-0.3h8.7v0.3
			c-0.3,2.9-0.4,8.4-0.5,12.6l1.6-0.1h1.2c11.4,0,17,3,17,9.4c0,7.2-7.8,8.9-14.3,9h-13.7L236.46,51.06L236.46,51.06z M291.66,47.56
			c4.1,0.1,6.9-0.7,8.3-2.5c0.6-0.7,0.9-1.7,0.9-2.8c0-4.5-5.1-5.5-9.3-5.5l-1.7,0.2c0,0-0.5,0-0.7,0.1c0,1,0,2.4,0,4
			c0,2,0,4.3,0.1,6.4C289.76,47.46,290.66,47.56,291.66,47.56 M280.96,51.06c0.3-3.3,0.4-11.5,0.4-14.5c0-2.8,0-12-0.5-16v-0.3h8.7
			l-0.1,0.3c-0.3,2.9-0.4,8.4-0.4,12.6c0.4,0,1.6-0.1,1.6-0.1h1.3c11.4,0,17,3,17,9.4c0,7.2-7.8,8.9-14.3,9h-13.6L280.96,51.06z
			 M322.66,42.16c0.7-1.5,2.5-5.6,4.5-10.6c-0.3,0-0.7,0-0.7,0l-3.8-0.1c0,0-3.9,0.1-4.6,0.1
			C319.66,35.56,321.36,39.16,322.66,42.16 M320.56,51.36h-0.1l-0.1-0.2c-1.6-4.4-12-27.1-13.7-30.6l-0.1-0.4h7.4l0.1,0.2
			c0.6,2.1,1.5,4.5,2.5,7.1c0.3,0,6.2,0.1,6.2,0.1h5.1c0,0,0.8-0.1,1.1-0.1c1.3-3.3,2.3-5.9,2.8-7.2l0.1-0.1h8.6l-13.8,31.2h-0.2
			C326.46,51.36,320.56,51.36,320.56,51.36z M343.66,51.06c0.2-3.3,0.4-11.5,0.4-14.5c0-2.8,0-12-0.5-16v-0.3h8.7v0.3
			c-0.5,4-0.5,13.3-0.5,16c0,2.2,0.1,7,0.3,10.9c0.7,0,1.7,0.1,2.4,0.1c4,0.1,6.9-0.8,8.2-2.5c0.6-0.7,0.9-1.7,0.9-2.8
			c0-3.6-3.4-5.4-6.5-5.6c-1,0-1.8,0.1-1.8,0.1l-0.6,0.1l0.3-0.6c3.1-4.5,7.7-12.3,9.6-16l0.1-0.1h9.3l-0.2,0.4
			c-0.4,0.5-6.5,9.5-9,13.3c0,0-0.1,0.1-0.2,0.2c4.8,1.4,7.1,4.1,7.1,8.2c0,7.2-7.8,8.9-14.4,9h-13.6L343.66,51.06z M386.36,51.36
			h-8.3v-0.3c0.2-3.3,0.4-11.5,0.4-14.5c0-2.8,0-12-0.4-16v-0.3h8.6v0.3c-0.3,4-0.4,13.3-0.4,16c0,3,0.2,11.2,0.4,14.5v0.3
			C386.66,51.36,386.36,51.36,386.36,51.36z M405.66,47.96c6.1-0.1,8.3-1.3,8.3-4.6c0-0.9-0.3-1.7-0.8-2.3c-1.1-1.4-3.4-2.1-6.3-1.9
			h-0.1l-1.7-4.4h1.7c3.3,0.1,6.2-1,7.7-2.8c0.7-0.8,1.1-1.8,1.1-2.8c0-3.4-3-5.2-9-5.2c-1,0-2.6,0-3.6,0
			c-0.2,4.6-0.2,10.8-0.2,12.7c0,2.2,0.1,7,0.2,11.1C403.46,47.86,404.56,47.96,405.66,47.96 M394.46,51.06
			c0.2-3.3,0.4-11.5,0.4-14.5c0-2.8,0-12-0.4-16l-0.1-0.3h14.5c7.1,0,14.6,2.2,14.6,8.5c0,4-2.9,6.9-8.3,8.5c4,1.1,6.7,3.8,6.7,6.9
			c0,5.2-5.9,7.1-11.5,7.2h-16L394.46,51.06z M441.26,42.16c0.7-1.5,2.5-5.6,4.5-10.6c-0.3,0-0.7,0-0.7,0l-3.8-0.1
			c0,0-4,0.1-4.6,0.1C438.16,35.16,439.66,38.76,441.26,42.16 M444.86,51.36h-5.8v-0.1c-1.7-4.7-12.7-28.6-13.7-30.6l-0.2-0.4h7.4
			v0.2c0.6,2.1,1.5,4.5,2.4,7.2c0.2,0,6.1,0.1,6.1,0.1l5.1-0.1h1.1c1.3-3.3,2.3-5.9,2.8-7.2l0.1-0.2h8.6l-13.8,31.2h-0.1V51.36z
			 M461.26,43.36c0-5.5,5.5-7.7,10.3-9.7c3.8-1.5,7.7-3.1,7.7-5.7c0-0.8-0.2-1.5-0.6-1.9c-0.9-1.1-2.7-1.5-5.7-1.4
			c-2.9,0.1-6.2,1-9.8,2.7l-1.4,0.7v-6.8l1-0.3l0.6-0.1c1.8-0.5,5.3-1.3,8.8-1.3c9.2,0,14.6,3.6,14.6,9.7c0,5.7-5.6,7.9-10.6,9.9
			c-3.7,1.5-7.5,3-7.5,5.4c0,0.7,0,2.7,4.7,2.7c3.5,0,6.9-1.4,8.8-2.2l1.8-0.7v1.2v5.6l-1.7,0.3c-1.8,0.4-4.7,1-7.8,1
			C466.56,52.46,461.26,48.76,461.26,43.36"/>
	</g>
</g>
</svg>
