<?xml version="1.0" encoding="UTF-8"?>
<svg id="Layer_1" data-name="Layer 1" xmlns="http://www.w3.org/2000/svg" version="1.1" viewBox="0 0 206.2 43">
  <defs>
    <style>
      .cls-1 {
        fill: #002d72;
      }

      .cls-1, .cls-2 {
        stroke-width: 0px;
      }

      .cls-2 {
        fill: #fff;
      }
    </style>
  </defs>
  <g id="Citco">
    <path class="cls-2" d="M30.6,38.6v4.1h145v-4.1H30.6ZM58.4,41.8h-27.5v-2.3h27.5s0,2.3,0,2.3ZM116.8,41.8h-27.5v-2.3h27.5v2.3h0ZM175.3,41.8h-27.5v-2.3h27.5v2.3Z"/>
    <path class="cls-1" d="M0,38.4v4.4h206.2v-4.4H0ZM30.9,41.8v-2.3h27.5v2.3h-27.5ZM89.3,41.8v-2.3h27.5v2.3h-27.5ZM175.3,41.8h-27.5v-2.3h27.5v2.3Z"/>
    <path class="cls-1" d="M70.2,25.1c-3.6-.4-4.8.2-4.8-3.2V4.2c0-3.3,1.3-2.8,4.8-3.2V.4h-13.5v.5c3.6.4,4.8-.2,4.8,3.2v17.8c0,3.3-1.3,2.8-4.8,3.2v.5h13.5v-.6Z"/>
    <path class="cls-1" d="M91.3,1.2h3.8v20.8c0,3.3-1.2,2.8-4.7,3.2v.5h13.3v-.5c-3.6-.4-4.7.2-4.7-3.2V1.2h3.8c3.5,0,5.1,2.8,6.4,5.2h.4l-1.6-5.9h-22.1l-1.6,5.9h.4c1.4-2.4,3-5.2,6.5-5.2h0Z"/>
    <path class="cls-1" d="M137,26.1c2.6,0,5.2-.3,7.7-1.1,1.1-.3,1.9-.4,1.9-1.3l1.4-5.7h-.5c-1.4,3.2-4.1,7.2-9.5,7.2-8.1,0-11.9-5.5-11.9-12.7,0-6.5,3.6-11.9,11-11.9s8.8,4.4,8.9,7.7h.5V2.6c0-.6-.3-1-1.5-1.4-2.5-.9-5.1-1.3-7.6-1.2-10.7,0-15.9,7.4-15.9,12.9,0,9.6,7.3,13.2,15.4,13.1h0Z"/>
    <path class="cls-1" d="M31,26.1c2.6,0,5.2-.3,7.7-1.1,1.1-.3,1.8-.4,1.8-1.3l1.4-5.6h-.5c-1.4,3.2-4.1,7.2-9.6,7.2-8.1,0-11.9-5.5-11.9-12.7,0-6.5,3.6-11.9,11-11.9s8.8,4.4,8.9,7.7h.5V2.6c0-.6-.3-1-1.5-1.4C36.5.4,33.9,0,31.4,0,20.7,0,15.5,7.4,15.5,12.9c0,9.7,7.4,13.2,15.5,13.2h0Z"/>
    <path class="cls-1" d="M178.3.1c-8.2-.8-15.4,4.2-16.2,12-.7,7,4.6,13.1,12.1,13.9,8.7.9,15.6-4.6,16.4-12.2.5-5.5-3.7-12.7-12.3-13.6ZM186,14.4c-.5,4.8-3.3,11.7-10.7,11-5.1-.5-9.5-6-8.6-14.7.5-4.9,3.8-10.5,10.6-9.9,4.8.4,9.5,4.9,8.6,13.6Z"/>
  </g>
  <metadata>
    <sfw xmlns="http://ns.adobe.com/SaveForWeb/1.0/">
      <slices/>
      <sliceSourceBounds x="0" y="0.11" width="206.17" height="42.89" bottomLeftOrigin="true"/>
    </sfw>
  </metadata>
</svg>