<?xml version="1.0" encoding="utf-8"?>
<!-- Generator: Adobe Illustrator 27.6.1, SVG Export Plug-In . SVG Version: 6.00 Build 0)  -->
<svg version="1.1" id="Layer_1" xmlns="http://www.w3.org/2000/svg" xmlns:xlink="http://www.w3.org/1999/xlink" x="0px" y="0px"
	 viewBox="0 0 211.8 54.6" style="enable-background:new 0 0 211.8 54.6;" xml:space="preserve">
<style type="text/css">
	.st0{fill:none;}
	.st1{fill:#60BEB3;}
</style>
<line class="st0" x1="23.9" y1="9.6" x2="0" y2="23.7"/>
<line class="st0" x1="0" y1="30.8" x2="23.9" y2="16.7"/>
<polygon class="st1" points="23.9,9.6 23.9,0 0,14.1 0,23.7 "/>
<polygon class="st1" points="0,30.8 0,40.5 23.9,26.3 23.9,16.7 "/>
<path class="st1" d="M7.9,50.2v-0.4c0-3-3.3-4.9-6-3.4c-1.2,0.7-2,2-2,3.4v0.4c0,3.1,3.3,5,6,3.4l0,0C7.2,52.9,7.9,51.6,7.9,50.2"/>
<polygon points="41.9,0.9 57.8,0.9 57.8,4.3 45.9,4.3 45.9,10.2 57.2,10.2 57.2,13.5 45.9,13.5 45.9,23.4 41.9,23.4 "/>
<path d="M63.8,4.7H60V0.9h3.8V4.7z M63.8,23.4H60V6.8h3.8V23.4z"/>
<path d="M76.1,10.5c-0.6-0.1-1.2-0.1-1.7-0.1c-1.2,0-2.1,0.3-2.7,1c-0.6,0.6-1,1.8-1,3.5v8.5H67V6.8h3.7v2.7
	c0.5-0.9,1.1-1.6,1.9-2.1s1.7-0.7,2.7-0.7c0.2,0,0.3,0,0.5,0s0.3,0,0.4,0.1v3.7H76.1z"/>
<path d="M88.1,11.9c-0.2-0.8-0.6-1.5-1.3-1.9c-0.7-0.5-1.6-0.7-2.6-0.7c-0.9,0-1.6,0.1-2.2,0.4c-0.6,0.3-0.9,0.7-0.9,1.3
	c0,0.5,0.2,0.9,0.7,1.2s1.1,0.5,1.9,0.7l2,0.4c0.8,0.2,1.6,0.4,2.4,0.6c0.8,0.2,1.4,0.5,2,0.9s1,0.8,1.4,1.4c0.4,0.6,0.5,1.2,0.5,2
	c0,0.9-0.2,1.7-0.6,2.3c-0.4,0.7-0.9,1.2-1.6,1.7s-1.4,0.8-2.3,1s-1.8,0.4-2.8,0.4c-1.1,0-2.1-0.1-3-0.4S80,22.5,79.4,22
	s-1.2-1.1-1.5-1.7c-0.4-0.7-0.6-1.4-0.7-2.1l3.7-0.5c0.2,0.9,0.6,1.7,1.2,2.3c0.6,0.6,1.6,0.9,2.8,0.9c1,0,1.9-0.2,2.5-0.5
	c0.6-0.4,0.9-0.9,0.9-1.6s-0.3-1.2-0.9-1.5s-1.4-0.5-2.2-0.7L83,16.1c-0.7-0.2-1.4-0.4-2.1-0.6c-0.6-0.2-1.2-0.5-1.7-0.9
	s-0.9-0.8-1.1-1.4c-0.3-0.5-0.4-1.2-0.4-2c0-0.7,0.2-1.4,0.6-2s0.9-1.1,1.5-1.5C80.4,7.3,81.2,7,82,6.8s1.7-0.3,2.7-0.3
	c0.9,0,1.7,0.1,2.5,0.3c0.8,0.2,1.5,0.5,2.2,1C90,8.2,90.6,8.7,91,9.4c0.5,0.6,0.8,1.3,0.9,2.2L88.1,11.9z M95.3,2h3.8v4.8h3.4v2.9
	h-3.4v8.6c0,0.9,0.1,1.4,0.4,1.7c0.3,0.3,0.8,0.4,1.6,0.4h1.4v3h-2.7c-0.9,0-1.6-0.1-2.2-0.2s-1-0.4-1.3-0.7
	c-0.3-0.3-0.5-0.8-0.7-1.4c-0.1-0.6-0.2-1.3-0.2-2.2V9.7h-2.5V6.8h2.5V2H95.3z"/>
<path d="M111.9,6.9c0-1.1,0.3-2.1,0.8-2.9s1.2-1.5,2-2s1.7-0.9,2.7-1.1s2-0.4,3-0.4c1.1,0,2.2,0.1,3.2,0.4s1.9,0.7,2.7,1.2
	c0.8,0.5,1.5,1.2,2,2c0.6,0.8,0.9,1.8,1.2,2.9l-3.9,0.6c-0.2-0.7-0.4-1.3-0.8-1.8s-0.8-0.9-1.3-1.2c-0.5-0.3-1-0.5-1.6-0.6
	s-1.1-0.2-1.7-0.2c-0.5,0-0.9,0-1.4,0.2c-0.5,0.2-1,0.3-1.4,0.5s-0.8,0.5-1,0.9c-0.3,0.4-0.4,0.8-0.4,1.4c0,0.9,0.3,1.5,0.9,2
	s1.4,0.8,2.4,1l2.8,0.6c0.9,0.2,1.8,0.4,2.7,0.7c0.9,0.3,1.7,0.7,2.5,1.2c0.7,0.5,1.3,1.1,1.8,1.9c0.5,0.8,0.7,1.7,0.7,2.9
	c0,1.1-0.2,2.1-0.7,3s-1.2,1.6-2,2.2s-1.8,1-2.9,1.3S122,24,120.9,24c-1.4,0-2.6-0.2-3.7-0.5s-2.1-0.9-2.9-1.5
	c-0.8-0.7-1.5-1.4-2-2.4c-0.5-0.9-0.9-1.9-1-3l3.9-0.6c0.3,1.6,1,2.8,2,3.6c1,0.8,2.3,1.2,3.9,1.2c0.6,0,1.2-0.1,1.8-0.2
	c0.6-0.1,1.1-0.3,1.5-0.6c0.4-0.3,0.8-0.6,1.1-1c0.3-0.4,0.4-0.9,0.4-1.5c0-0.5-0.1-1-0.4-1.3c-0.2-0.4-0.6-0.7-1-1
	s-0.9-0.5-1.5-0.7s-1.2-0.3-1.8-0.5l-2.8-0.6c-0.9-0.2-1.7-0.4-2.5-0.7s-1.5-0.7-2-1.2c-0.6-0.5-1.1-1.1-1.4-1.8
	C112.1,8.7,111.9,7.8,111.9,6.9"/>
<path d="M140.2,23.8c-1.4,0-2.6-0.2-3.6-0.7s-1.9-1.1-2.6-1.8c-0.7-0.8-1.2-1.7-1.6-2.7c-0.4-1.1-0.5-2.2-0.5-3.4
	c0-1.3,0.2-2.5,0.6-3.5c0.4-1.1,1-2,1.7-2.7c0.7-0.8,1.6-1.3,2.6-1.8c1-0.4,2.1-0.6,3.4-0.6c1.3,0,2.5,0.2,3.5,0.7s1.9,1.2,2.6,2
	c0.7,0.9,1.2,1.9,1.5,3.1s0.5,2.5,0.4,4h-12.5c0,1.4,0.5,2.5,1.3,3.3s1.9,1.2,3.2,1.2c1.2,0,2.1-0.2,2.7-0.7
	c0.6-0.5,1.1-1.1,1.4-1.9l3.6,0.5c-0.2,0.6-0.5,1.2-0.9,1.8c-0.4,0.6-0.9,1.2-1.5,1.7s-1.4,0.9-2.3,1.2
	C142.3,23.7,141.3,23.8,140.2,23.8 M140.1,9.4c-0.5,0-1.1,0.1-1.6,0.2c-0.5,0.2-1,0.4-1.4,0.7s-0.7,0.8-1,1.3s-0.4,1.1-0.4,1.9h8.6
	c0-0.6-0.1-1.2-0.4-1.7c-0.2-0.5-0.5-0.9-0.9-1.3c-0.4-0.4-0.8-0.6-1.3-0.8C141.2,9.5,140.7,9.4,140.1,9.4"/>
<path d="M154,8.9c0.5-0.7,1.1-1.3,2-1.8s1.9-0.6,3.1-0.6c2.1,0,3.7,0.7,4.7,2.1c0.4,0.5,0.6,1.1,0.8,1.9c0.2,0.7,0.3,1.6,0.3,2.7
	v10.3h-3.8v-9.3c0-0.9-0.1-1.6-0.2-2.2c-0.1-0.6-0.4-1.1-0.7-1.5c-0.2-0.2-0.6-0.4-0.9-0.6c-0.4-0.1-0.8-0.2-1.3-0.2
	c-0.7,0-1.3,0.1-1.8,0.4c-0.5,0.3-0.9,0.6-1.2,1.1s-0.5,1-0.7,1.6c-0.1,0.6-0.2,1.3-0.2,2.1v8.6h-3.8V6.8h3.8v2.1H154z"/>
<path d="M168.5,2h3.8v4.8h3.4v2.9h-3.4v8.6c0,0.9,0.1,1.4,0.4,1.7c0.3,0.3,0.8,0.4,1.6,0.4h1.4v3H173c-0.9,0-1.6-0.1-2.2-0.2
	c-0.6-0.1-1-0.4-1.3-0.7c-0.3-0.3-0.5-0.8-0.7-1.4c-0.1-0.6-0.2-1.3-0.2-2.2V9.7H166V6.8h2.5V2z"/>
<path d="M182.1,4.7h-3.8V0.9h3.8V4.7z M182.1,23.4h-3.8V6.8h3.8V23.4z"/>
<path d="M192.6,23.8c-1.4,0-2.6-0.2-3.6-0.7s-1.9-1.1-2.6-1.8c-0.7-0.8-1.2-1.7-1.6-2.7c-0.4-1.1-0.5-2.2-0.5-3.4
	c0-1.3,0.2-2.5,0.6-3.5c0.4-1.1,0.9-2,1.7-2.7c0.7-0.8,1.6-1.3,2.6-1.8c1-0.4,2.1-0.6,3.4-0.6c1.3,0,2.5,0.2,3.5,0.7s1.9,1.2,2.6,2
	c0.7,0.9,1.2,1.9,1.5,3.1s0.5,2.5,0.4,4h-12.5c0,1.4,0.5,2.5,1.3,3.3s1.9,1.2,3.2,1.2c1.2,0,2.1-0.2,2.7-0.7
	c0.6-0.5,1.1-1.1,1.4-1.9l3.6,0.5c-0.2,0.6-0.5,1.2-0.9,1.8c-0.4,0.6-0.9,1.2-1.5,1.7s-1.4,0.9-2.3,1.2
	C194.7,23.7,193.7,23.8,192.6,23.8 M192.5,9.4c-0.5,0-1.1,0.1-1.6,0.2c-0.5,0.2-1,0.4-1.4,0.7s-0.7,0.8-1,1.3s-0.4,1.1-0.4,1.9h8.6
	c0-0.6-0.1-1.2-0.4-1.7c-0.2-0.5-0.5-0.9-0.9-1.3c-0.4-0.4-0.8-0.6-1.3-0.8C193.6,9.5,193.1,9.4,192.5,9.4"/>
<path d="M211.8,10.5c-0.6-0.1-1.2-0.1-1.7-0.1c-1.2,0-2.1,0.3-2.7,1c-0.6,0.6-1,1.8-1,3.5v8.5h-3.8V6.8h3.7v2.7
	c0.5-0.9,1.1-1.6,1.9-2.1c0.8-0.5,1.7-0.7,2.7-0.7c0.2,0,0.3,0,0.5,0s0.3,0,0.4,0.1L211.8,10.5L211.8,10.5z"/>
<rect x="42.3" y="31.7" width="2.1" height="22.5"/>
<path d="M50.2,40.4c0.2-0.4,0.5-0.8,0.8-1.2s0.7-0.7,1.2-1s1-0.5,1.6-0.7s1.3-0.3,2.1-0.3c1,0,1.9,0.2,2.6,0.5s1.3,0.7,1.8,1.3
	c0.9,1.1,1.3,2.7,1.3,4.8v10.3h-2v-9.8c0-1-0.1-1.8-0.2-2.4c-0.2-0.6-0.4-1.2-0.7-1.6c-0.4-0.5-0.8-0.8-1.4-1
	c-0.6-0.2-1.2-0.3-1.9-0.3s-1.4,0.1-2,0.4c-0.6,0.3-1.2,0.7-1.6,1.2c-0.5,0.5-0.8,1.2-1.1,1.9s-0.4,1.6-0.4,2.5v9.1h-2V37.6h2v2.8
	C50.3,40.4,50.2,40.4,50.2,40.4z"/>
<polygon points="70.2,51.4 75.3,37.6 77.4,37.6 71.1,54.2 69.2,54.2 62.7,37.6 65,37.6 "/>
<path d="M85.7,54.6c-1.2,0-2.4-0.2-3.3-0.6c-1-0.4-1.8-1-2.5-1.8s-1.2-1.7-1.5-2.7c-0.3-1.1-0.5-2.2-0.5-3.5s0.2-2.5,0.6-3.6
	s0.9-2,1.6-2.7s1.5-1.3,2.5-1.7s2-0.6,3.2-0.6s2.3,0.2,3.2,0.7c1,0.5,1.8,1.1,2.4,1.9c0.7,0.8,1.1,1.7,1.5,2.9
	c0.3,1.1,0.4,2.3,0.4,3.6H79.9c0,1,0.1,1.9,0.4,2.7s0.7,1.5,1.2,2c0.5,0.6,1.1,1,1.9,1.3c0.7,0.3,1.5,0.4,2.4,0.4
	c1.3,0,2.5-0.3,3.4-1s1.5-1.6,1.8-2.7l2,0.3c-0.2,0.8-0.5,1.5-1,2.2c-0.4,0.6-1,1.2-1.6,1.6c-0.6,0.5-1.4,0.8-2.2,1
	C87.5,54.4,86.6,54.6,85.7,54.6 M85.7,39c-1.6,0-2.9,0.5-3.9,1.5c-1.1,1-1.7,2.4-1.8,4.2h11.2c0-0.7-0.1-1.4-0.4-2.1
	c-0.2-0.7-0.6-1.3-1.1-1.8s-1-1-1.7-1.3C87.3,39.1,86.6,39,85.7,39"/>
<path d="M106.5,42.1c-0.3-0.9-0.8-1.7-1.6-2.3c-0.8-0.6-1.8-0.8-3-0.8c-0.4,0-0.9,0-1.3,0.1c-0.5,0.1-0.9,0.2-1.4,0.4
	c-0.4,0.2-0.8,0.5-1.1,0.8s-0.4,0.8-0.4,1.3c0,0.8,0.3,1.5,0.8,1.9c0.6,0.4,1.3,0.7,2.2,0.9l2.4,0.4c0.7,0.1,1.4,0.3,2.1,0.5
	s1.3,0.5,1.8,0.8s1,0.8,1.3,1.3s0.5,1.2,0.5,2s-0.2,1.6-0.5,2.2c-0.4,0.6-0.8,1.2-1.4,1.6c-0.6,0.4-1.3,0.8-2.1,1
	c-0.8,0.2-1.7,0.3-2.6,0.3s-1.7-0.1-2.5-0.3s-1.4-0.6-2-1c-0.6-0.5-1.1-1-1.5-1.7s-0.7-1.4-0.8-2.3l2-0.3c0.2,1.2,0.8,2.2,1.6,2.9
	c0.8,0.7,1.9,1,3.2,1c0.5,0,1,0,1.5-0.2c0.5-0.1,1-0.3,1.5-0.5s0.8-0.6,1.1-0.9c0.3-0.4,0.4-0.9,0.4-1.4s-0.1-0.9-0.3-1.3
	c-0.2-0.3-0.5-0.6-0.9-0.8s-0.8-0.4-1.3-0.5s-1-0.3-1.6-0.4l-2.6-0.5c-0.6-0.1-1.2-0.3-1.7-0.5s-1-0.5-1.4-0.9s-0.7-0.8-1-1.3
	c-0.2-0.5-0.4-1.1-0.4-1.7c0-0.7,0.2-1.3,0.5-1.8c0.3-0.6,0.8-1,1.3-1.4c0.6-0.4,1.2-0.7,2-0.9s1.7-0.3,2.6-0.3s1.7,0.1,2.4,0.4
	c0.7,0.2,1.3,0.6,1.9,1c0.5,0.4,1,0.9,1.3,1.5s0.6,1.1,0.7,1.7H106.5z M113.5,33.4h2v4.1h3.4v1.7h-3.4v10.5c0,0.5,0,1,0.1,1.3
	c0,0.4,0.1,0.6,0.3,0.8c0.1,0.2,0.4,0.3,0.7,0.4c0.3,0.1,0.8,0.1,1.3,0.1h1v1.8h-1.6c-0.7,0-1.4,0-1.8-0.2c-0.5-0.1-0.9-0.3-1.1-0.6
	c-0.3-0.3-0.5-0.7-0.6-1.2s-0.2-1.2-0.2-2V39.2h-2.8v-1.7h2.8v-4.1H113.5z"/>
<path d="M120.1,45.9c0-1.5,0.2-2.8,0.6-3.9c0.4-1.1,1-2,1.7-2.7s1.5-1.2,2.4-1.6c0.9-0.3,1.9-0.5,2.9-0.5s1.9,0.2,2.8,0.5
	c0.9,0.3,1.7,0.9,2.5,1.6c0.7,0.7,1.3,1.6,1.7,2.7c0.4,1.1,0.6,2.4,0.6,3.9s-0.2,2.8-0.6,3.9c-0.4,1.1-1,2-1.7,2.7s-1.5,1.2-2.5,1.6
	c-0.9,0.3-1.9,0.5-2.8,0.5c-1,0-1.9-0.2-2.9-0.5c-0.9-0.3-1.7-0.9-2.4-1.6c-0.7-0.7-1.3-1.6-1.7-2.7S120.1,47.4,120.1,45.9
	 M122.2,45.9c0,1.2,0.1,2.2,0.4,3c0.3,0.9,0.7,1.6,1.2,2.2c0.5,0.6,1.1,1,1.8,1.3c0.7,0.3,1.4,0.4,2.2,0.4s1.5-0.1,2.2-0.4
	c0.7-0.3,1.3-0.7,1.8-1.3s0.9-1.3,1.2-2.2s0.4-1.9,0.4-3c0-1.2-0.1-2.2-0.4-3.1c-0.3-0.9-0.7-1.6-1.2-2.2c-0.5-0.6-1.1-1-1.8-1.3
	s-1.4-0.4-2.2-0.4s-1.5,0.1-2.2,0.4c-0.7,0.3-1.3,0.7-1.8,1.3s-0.9,1.3-1.2,2.2C122.3,43.7,122.2,44.7,122.2,45.9"/>
<path d="M145.6,39.6c-0.2,0-0.3,0-0.5,0h-0.4c-0.9,0-1.6,0.1-2.2,0.4c-0.6,0.3-1,0.7-1.3,1.3c-0.3,0.5-0.5,1.2-0.7,1.9
	c-0.1,0.7-0.2,1.6-0.2,2.5v8.5h-1.9V37.6h1.9v2.8c0.4-1,1-1.8,1.9-2.3s1.8-0.7,2.8-0.7h0.3c0.1,0,0.2,0,0.3,0L145.6,39.6L145.6,39.6
	z"/>
<path d="M158,42.1c-0.3-0.9-0.8-1.7-1.6-2.3s-1.8-0.8-3-0.8c-0.4,0-0.9,0-1.3,0.1c-0.5,0.1-0.9,0.2-1.4,0.4
	c-0.4,0.2-0.8,0.5-1.1,0.8s-0.4,0.8-0.4,1.3c0,0.8,0.3,1.5,0.8,1.9c0.6,0.4,1.3,0.7,2.2,0.9l2.4,0.4c0.7,0.1,1.4,0.3,2.1,0.5
	c0.7,0.2,1.3,0.5,1.8,0.8s1,0.8,1.3,1.3s0.5,1.2,0.5,2s-0.2,1.6-0.5,2.2c-0.3,0.6-0.8,1.2-1.4,1.6c-0.6,0.4-1.3,0.8-2.1,1
	s-1.7,0.3-2.6,0.3c-0.9,0-1.7-0.1-2.5-0.3s-1.4-0.6-2-1c-0.6-0.5-1.1-1-1.5-1.7s-0.7-1.4-0.8-2.3l2-0.3c0.2,1.2,0.8,2.2,1.6,2.9
	s1.9,1,3.2,1c0.5,0,1,0,1.5-0.2c0.5-0.1,1-0.3,1.5-0.5s0.8-0.6,1.1-0.9c0.3-0.4,0.4-0.9,0.4-1.4s-0.1-0.9-0.3-1.3
	c-0.2-0.3-0.5-0.6-0.9-0.8s-0.8-0.4-1.3-0.5s-1-0.3-1.6-0.4l-2.6-0.5c-0.6-0.1-1.2-0.3-1.7-0.5s-1-0.5-1.4-0.9
	c-0.4-0.3-0.7-0.8-1-1.3c-0.2-0.5-0.4-1.1-0.4-1.7c0-0.7,0.2-1.3,0.5-1.8c0.3-0.6,0.8-1,1.3-1.4c0.6-0.4,1.2-0.7,2-0.9
	s1.7-0.3,2.6-0.3c0.9,0,1.7,0.1,2.4,0.4c0.7,0.2,1.3,0.6,1.9,1c0.5,0.4,1,0.9,1.3,1.5s0.6,1.1,0.7,1.7H158z"/>
</svg>
