<?xml version="1.0" encoding="utf-8"?>
<!-- Generator: Adobe Illustrator 27.6.1, SVG Export Plug-In . SVG Version: 6.00 Build 0)  -->
<svg version="1.1" id="Layer_1" xmlns="http://www.w3.org/2000/svg" xmlns:xlink="http://www.w3.org/1999/xlink" x="0px" y="0px"
	 viewBox="0 0 180 180" style="enable-background:new 0 0 180 180;" xml:space="preserve">
<style type="text/css">
	.st0{fill:#FFFFFF;}
	.st1{fill-rule:evenodd;clip-rule:evenodd;fill:#03598D;}
	.st2{fill-rule:evenodd;clip-rule:evenodd;fill:#6CCCDE;}
	.st3{fill-rule:evenodd;clip-rule:evenodd;fill:#28BDB9;}
	.st4{fill-rule:evenodd;clip-rule:evenodd;fill:#BDD687;}
	.st5{fill-rule:evenodd;clip-rule:evenodd;fill:#006292;}
	.st6{fill-rule:evenodd;clip-rule:evenodd;fill:#3BBDAE;}
	.st7{fill-rule:evenodd;clip-rule:evenodd;fill:#032641;}
</style>
<path class="st0" d="M138.8,180H41.2C18.5,180,0,161.5,0,138.8V41.2C0,18.5,18.5,0,41.2,0h97.5C161.5,0,180,18.5,180,41.2v97.5
	C180,161.5,161.5,180,138.8,180z"/>
<g>
	<g id="Ellipse_1_copy_2">
		<g>
			<path class="st1" d="M95.2,55.7c5.4,0.3,10.7,1.8,15.7,4.6c16.7,9.6,22.4,30.9,12.8,47.6c-1.4,2.4-3,4.6-4.9,6.5l8.5,8.5l2.6,2.6
				c2.8-2.9,5.3-6.2,7.4-9.8c14-24.2,5.7-55.2-18.5-69.1c-7.5-4.3-15.5-6.5-23.6-6.7V55.7z"/>
		</g>
	</g>
	<g id="Ellipse_1_copy_7">
		<g>
			<path class="st2" d="M105.3,122.8c-5,2-10.5,2.9-16.2,2.4c-19.2-1.7-33.3-18.6-31.7-37.8c0.2-2.8,0.8-5.5,1.7-8l-11.4-4.1
				l-3.5-1.3c-1.3,3.8-2.2,7.8-2.6,12c-2.5,27.8,18.1,52.4,46,54.9c8.6,0.8,16.8-0.7,24.2-3.8L105.3,122.8z"/>
		</g>
	</g>
	<g id="Ellipse_1_copy_3">
		<g>
			<path class="st3" d="M48.2,67.3C56.6,51,73.5,39.9,93.1,39.9c15.9,0,30.1,7.4,39.4,18.9l13-8.2c-12-15.8-31-26-52.4-26
				c-25.3,0-47.3,14.3-58.3,35.3L48.2,67.3z"/>
		</g>
	</g>
	<g id="Ellipse_1_copy_5">
		<g>
			<path class="st4" d="M129.5,125.7c-5.8,5.3-12.9,9.4-21.1,11.6c-4.7,1.3-9.5,1.8-14.2,1.7l0.1,15.3c6,0.1,12-0.6,18.1-2.2
				c10.7-2.9,20.1-8.3,27.8-15.4L129.5,125.7z"/>
		</g>
	</g>
	<g id="Ellipse_1_copy_6">
		<g>
			<path class="st5" d="M72,136.3c-12.4-5.7-22.1-16.2-26.6-29.2l-14.5,4.8c5.7,16.4,17.7,29.9,33.1,37.5L72,136.3z"/>
		</g>
	</g>
	<g id="Ellipse_1_copy_4">
		<g>
			<path class="st6" d="M74.5,102.3c-2.5-3.5-3.9-7.8-3.9-12.4c0-12,9.9-21.7,22.2-21.7c1.1,0,2.1,0.1,3.1,0.2l3.9-12.9
				c-2.2-0.4-4.4-0.6-6.7-0.6c-19.6,0-35.5,15.9-35.5,35.5c0,6.7,1.9,13,5.1,18.4L74.5,102.3z"/>
		</g>
	</g>
	<g id="Ellipse_1_copy_8">
		<g>
			<path class="st7" d="M95.9,74.9c-10.1,0-18.3,8.2-18.3,18.3c0,10.1,8.2,18.3,18.3,18.3s18.3-8.2,18.3-18.3
				C114.2,83.1,106,74.9,95.9,74.9z M95.8,101.8c-5,0-9.1-4-9.1-8.9c0-4.9,4.1-8.9,9.1-8.9c5,0,9.1,4,9.1,8.9
				C104.8,97.9,100.8,101.8,95.8,101.8z"/>
		</g>
	</g>
</g>
</svg>
