<?xml version="1.0" encoding="utf-8"?>
<!-- Generator: Adobe Illustrator 27.6.1, SVG Export Plug-In . SVG Version: 6.00 Build 0)  -->
<svg version="1.1" id="layer" xmlns="http://www.w3.org/2000/svg" xmlns:xlink="http://www.w3.org/1999/xlink" x="0px" y="0px"
	 viewBox="0 0 600.1 184.9" style="enable-background:new 0 0 600.1 184.9;" xml:space="preserve">
<style type="text/css">
	.st0{fill:#123250;}
</style>
<g id="Layer_1">
	<path class="st0" d="M21.5,134.6V29.9H0V155h74.4v-20.3H21.5V134.6z M447.3,119c0-16.9-7.3-26.4-20.2-30.2v-0.3
		c9.5-4,16-12.4,16-27c0-20.6-12.2-31.5-36.5-31.5h-43.5v125.1h44.4C435.9,155,447.4,141.5,447.3,119 M425.9,117.4
		c0,14.3-6.2,18.6-17.9,18.6h-24.2V99.3h23.3C420.3,99.3,425.8,104.4,425.9,117.4 M422.5,65.4c0,11.5-4.8,16.7-16,16.7H384v-33h22
		C417.5,49.1,422.5,53.1,422.5,65.4 M516.8,29.9l-16.6,83.2l-2.3,14h-0.5l-2.2-14.2l-16.5-83h-22.6L482.8,155h27l16-82l2.3-15.1h0.5
		l2.2,15.2l16.2,82h26.4l26.7-125.2h-21.7l-16.7,82.5l-2.3,14.2h-0.5l-2.2-14l-16.6-82.7L516.8,29.9L516.8,29.9z M175,119
		c0-16.9-7.3-26.4-20.2-30.2v-0.3c9.5-4,16-12.4,16-27c0-20.6-12.2-31.5-36.5-31.5H90.8v125.1h44.3C163.5,155,175,141.5,175,119
		 M153.5,117.4c0,14.3-6.2,18.6-17.9,18.6h-24.2V99.3h23.4C147.9,99.3,153.4,104.4,153.5,117.4 M150.1,65.4c0,11.5-4.8,16.7-16,16.7
		h-22.5v-33h22C145.1,49.1,150.1,53.1,150.1,65.4 M328.3,29.9H203.2v24.8h125.1V29.9z M328.3,79.9H203.2v24.8h125.1V79.9z
		 M328.3,155H203.2v-24.8h125.1V155z"/>
</g>
</svg>
