<?xml version="1.0" encoding="UTF-8"?>
<svg id="Layer_1" data-name="Layer 1" xmlns="http://www.w3.org/2000/svg" viewBox="0 0 222.44 39.88">
  <defs>
    <style>
      .cls-1 {
        fill: #141414;
      }
    </style>
  </defs>
  <path class="cls-1" d="M19.17.09c28.59-2.27,31.32,38.18,3.19,39.74C-5.38,41.37-8.29,2.27,19.17.09ZM7.22,7.38c-.72.19-1.58,1.35-2.02,1.93C-.25,16.46.49,26.17,6.81,32.47c.44-.25-.1-.61-.25-.84-.53-.85-1.14-1.61-1.58-2.51-3.22-6.66-2.51-15.96,2.23-21.73ZM35.32,32.2c6.75-6.34,6.98-17.74.41-24.28l2.52,5.67c1.23,4.59,1.22,9.38-.46,13.84l-2.46,4.77ZM19.97,10.99c-11.69,1.53-8.1,21.3,3.61,17.51,9.55-3.09,6.57-18.85-3.61-17.51ZM13.49,12.56c-.44-.42-2.45,2.26-2.68,2.64-1.92,3.21-1.86,6.45.11,9.61.42.67,1.59,2.36,2.29,2.07-3.15-4.16-3.02-10.28.27-14.32ZM28.77,27.29c5.18-3.59,5.21-11.3-.14-14.73l1.82,3.09c.99,2.69,1.06,5.44.15,8.16l-1.83,3.48Z"/>
  <polygon class="cls-1" points="56.73 10.38 63 25.38 69.14 10.38 73.5 10.38 73.5 29.47 70.77 29.47 70.77 14.19 64.1 29.49 61.53 29.44 55.23 14.19 55.23 29.47 52.5 29.47 52.5 10.38 56.73 10.38"/>
  <path class="cls-1" d="M138.15,29.47h-4.23c-.13,0-1.62-1.55-1.95-1.61-.32-.06-1.48.97-2.01,1.2-8.62,3.72-16.99-4.45-13.41-13.14,4.05-9.86,19.88-6.81,18.88,5.24-.09,1.13-1.42,4.36-1.35,4.58.09.31,3.65,3.08,4.07,3.72ZM127.28,23.71c-.41-.7,1.29-1.92,1.77-2.4.5-.09,1.64,1.56,2.14,1.89.28.18.21.44.55,0,3.3-6.82-4.7-13.84-10.63-8.73-5.2,4.49-1.42,13.73,5.93,12.48.44-.07,2.06-.71,2.26-1.02.53-.81-1.9-2.02-2.02-2.23Z"/>
  <path class="cls-1" d="M191.48,10.38c4.99.83,6.22,9,.26,10.91-.29.09-.49-.2-.4.41l5.18,7.78c-1.02-.15-2.9.33-3.7-.25-.87-.81-4.7-7.66-5.16-7.66h-5.59v8.18h-3V10.38h12.41ZM182.07,18.83h8.32c1,0,2.32-1.77,2.32-2.86,0-1.28-1.39-2.86-2.59-2.86h-8.05v5.73Z"/>
  <polygon class="cls-1" points="222.16 10.38 222.16 13.1 210.16 13.1 210.16 18.29 221.07 18.29 221.07 21.01 210.16 21.01 210.16 26.74 222.44 26.74 222.44 29.47 207.16 29.47 207.16 10.38 222.16 10.38"/>
  <path class="cls-1" d="M141.7,10.38v11.87c0,.19.69,2.12.86,2.41,1.83,3.17,7.64,3.17,9.47,0,.17-.29.86-2.22.86-2.41v-11.87h3v12.68c0,.45-.68,2.36-.94,2.88-3.38,6.81-16.24,4.66-16.24-3.42v-12.14h3Z"/>
  <path class="cls-1" d="M176.88,29.74c-.74-.13-2.46.25-3.01-.12-.34-.23-1.8-4.19-2.14-4.89-.35-.46-8.12,0-9.39-.18-.45.11-2.04,4.92-2.41,5.15-.42.26-2.3-.09-2.96.04l8.49-19.33c.93.04,2.32-.4,2.94.41l8.48,18.93ZM170.34,21.83l-3.41-7.64-3.41,7.64h6.82Z"/>
  <path class="cls-1" d="M112.96,27.19c-5.18,5.29-14.69,2.76-16.62-4.33-3.1-11.39,11.3-17.96,17.79-8.57l-2.05,1.8c-.34.08-1.45-1.59-2.04-2.02-3.05-2.19-7.43-1.51-9.64,1.51-4.71,6.43,3.07,14.91,9.64,10.19.59-.42,1.7-2.1,2.04-2.02l2.05,1.8c.03.19-.95,1.42-1.17,1.64Z"/>
  <path class="cls-1" d="M95.6,29.47c-.79-.13-2.36.25-3-.13-.5-.3-1.65-3.85-2.15-4.61-.35-.46-8.13,0-9.39-.18-.45.11-1.67,4.37-2.36,4.79-.63.38-2.22,0-3,.13l8.72-18.97c.41-.27,2.42-.32,2.71.31l8.48,18.66ZM82.23,21.83h6.82l-3.14-7.37c-.46-.15-.75.92-.91,1.27-.94,2.02-1.68,4.14-2.77,6.1Z"/>
  <rect class="cls-1" x="199.8" y="10.38" width="3" height="19.09"/>
</svg>