<?xml version="1.0" encoding="utf-8"?>
<!-- Generator: Adobe Illustrator 28.2.0, SVG Export Plug-In . SVG Version: 6.00 Build 0)  -->
<!DOCTYPE svg PUBLIC "-//W3C//DTD SVG 1.1//EN" "http://www.w3.org/Graphics/SVG/1.1/DTD/svg11.dtd" [
	<!ENTITY ns_extend "http://ns.adobe.com/Extensibility/1.0/">
	<!ENTITY ns_ai "http://ns.adobe.com/AdobeIllustrator/10.0/">
	<!ENTITY ns_graphs "http://ns.adobe.com/Graphs/1.0/">
	<!ENTITY ns_vars "http://ns.adobe.com/Variables/1.0/">
	<!ENTITY ns_imrep "http://ns.adobe.com/ImageReplacement/1.0/">
	<!ENTITY ns_sfw "http://ns.adobe.com/SaveForWeb/1.0/">
	<!ENTITY ns_custom "http://ns.adobe.com/GenericCustomNamespace/1.0/">
	<!ENTITY ns_adobe_xpath "http://ns.adobe.com/XPath/1.0/">
]>
<svg version="1.1"
	 id="Santander" xmlns:x="&ns_extend;" xmlns:i="&ns_ai;" xmlns:graph="&ns_graphs;" xmlns:dc="http://purl.org/dc/elements/1.1/" xmlns:cc="http://creativecommons.org/ns#" xmlns:sodipodi="http://sodipodi.sourceforge.net/DTD/sodipodi-0.dtd" xmlns:rdf="http://www.w3.org/1999/02/22-rdf-syntax-ns#" xmlns:svg="http://www.w3.org/2000/svg" xmlns:inkscape="http://www.inkscape.org/namespaces/inkscape" sodipodi:docname="Banco_Santander_Logotipo.svg"
	 xmlns="http://www.w3.org/2000/svg" xmlns:xlink="http://www.w3.org/1999/xlink" x="0px" y="0px" width="139.3px" height="41.5px"
	 viewBox="0 0 139.3 41.5" style="enable-background:new 0 0 139.3 41.5;" xml:space="preserve">
<style type="text/css">
	.st0{fill:#183181;}
	.st1{fill:#ED1A3A;}
</style>
<metadata  id="metadata830">
	<rdf:RDF>
		<cc:Work  rdf:about="">
			<dc:title>Santander</dc:title>
		</cc:Work>
	</rdf:RDF>
	<sfw  xmlns="&ns_sfw;">
		<slices></slices>
		<sliceSourceBounds  bottomLeftOrigin="true" height="41.4" width="139.3" x="0" y="0.1"></sliceSourceBounds>
	</sfw>
</metadata>
<g>
	
		<g id="g10_00000101810013851978648170000007116449446079089839_" transform="matrix(1.0204098,0,0,-1.0204098,-4.1025592,151.16218)">
		<g id="g12_00000158006673311073432330000000468982376854473648_">
			<g>
				<g id="g14_00000181785448397689805120000001415705742150479764_">
					<g id="g20_00000183964209448981242480000007282668325998431886_" transform="translate(78.0535,147.1587)">
						<path id="path22_00000078755097320433463170000016904764352204297658_" class="st0" d="M-53.7,1c-1.1-2.9-2.3-5.8-3.6-8.7
							l-1.7-3.9l-1.7,3.9c-1.3,2.9-2.5,5.8-3.7,8.7h-9.4V0.2c1,0,1.9-0.9,1.9-1.9c-0.2-2-0.3-4-0.5-6l-0.6-6.1
							c-0.3-2.9-0.6-5.8-1-8.7h3c0.2,2.9,0.4,5.8,0.7,8.7l0.9,9.2c1.3-2.8,2.6-5.6,3.9-8.4l0.3-0.8c1.3-2.9,2.5-5.8,3.7-8.7h0.9
							c1.1,2.9,2.3,5.8,3.6,8.7l0.5,1.2c1.2,2.8,2.5,5.6,3.8,8.4l1-9.6c0.3-2.9,0.5-5.8,0.7-8.7h6.9c-0.4,2.9-0.7,5.8-1,8.7
							l-0.6,6.1C-46-4.8-46.2-1.9-46.4,1H-53.7z"/>
					</g>
					<g id="g24_00000172420713280868373560000007429947597034824838_" transform="translate(189.6398,71.3369)">
						<path id="path26_00000074427816203855785730000001677324943530665398_" class="st0" d="M-134.2,55.7c0.8,1.4,1.6,2.9,2.4,4.3
							l8.4,14v0.6h-18.5v-4.3h0.7c0,1,0.8,1.9,1.8,2c0.6,0,1.2,0,1.7,0h6c-0.7-1.4-1.5-2.8-2.4-4.3l-8.5-14.1v-0.6h20v2.5
							c-1.4-0.1-2.8-0.2-4.2-0.2H-134.2z"/>
					</g>
					<g id="g28_00000168808161948755464920000004006675599098970002_" transform="translate(312.5677,62.9704)">
						<path id="path30_00000000190610468760561610000000939528256077502363_" class="st0" d="M-222.8,61.7c0.1,0,0.1,0,0.2,0
							c-0.1,1.4-0.2,2.9-0.2,4.3v5.3h8.3v-5.3c0-1.5,0-2.9-0.2-4.3h6.4c-0.1,1.4-0.2,2.9-0.2,4.3v12.6c0,1.5,0.1,2.9,0.2,4.4h-8.1
							v-0.7h0.2c0.9,0,1.6-0.7,1.7-1.6c0-0.7,0-1.4,0-2.1v-5h-8.3v5c0,1.5,0.1,2.9,0.2,4.4h-8.1v-0.7h0.2c0.9,0,1.6-0.7,1.7-1.6
							c0-0.7,0-1.4,0-2.1V63.9c-0.8-0.1-1.7-0.2-2.6-0.2c-0.9,0-1.9,0.1-2.8,0.2c-2.6,0.5-3,2.9-3,4.4v10.4c0,1.4,0.1,2.8,0.2,4.2
							h-8.1v-0.7h0.2c0.9,0,1.6-0.7,1.7-1.6c0-0.7,0-1.4,0-2.1v-9.3c0-2.1,0.7-6.7,6.3-7.6c1.8-0.2,3.6-0.4,5.4-0.4
							C-228.6,61.4-225.7,61.5-222.8,61.7"/>
					</g>
					<g id="g32_00000106864798491077995530000001155813670921479052_" transform="translate(462.4467,101.1617)">
						<path id="path34_00000031166143348660501420000002548233107088308881_" class="st0" d="M-331,34.2L-331,34.2
							c0-7.3-6.3-10.9-12.4-10.9c-6.2,0-12.4,3.7-12.4,10.9c0,7.3,6.3,10.9,12.4,10.9C-337.2,45.1-331,41.4-331,34.2 M-337,34.2
							c0,4-1.7,8.6-6.4,8.6c-4.7,0-6.4-4.7-6.4-8.6c0-3.9,1.7-8.6,6.4-8.6C-338.7,25.6-337,30.2-337,34.2"/>
					</g>
					<g id="g36_00000175295721818212385550000013934750040406784441_" transform="translate(149.5464,123.7515)">
						<path id="path38_00000137838070683340255180000009472813483232252807_" class="st0" d="M-105.2,17.9c0,1.5,0.1,2.9,0.2,4.4
							h-8.3v-0.8h0.2c1.1,0,1.9-0.9,1.9-2c0-0.5,0-1.1,0-1.6V5.3c0-1.5-0.1-2.9-0.2-4.3h6.4c-0.1,1.4-0.2,2.9-0.2,4.3V17.9z"/>
					</g>
					<g id="g40_00000155839954967228047880000000561409931311901876_" transform="translate(46.6072,21.0108)">
						<path id="path42_00000088093563863010614070000013129195414543739029_" class="st1" d="M-31,92c16.8,3.8,34.2,5.7,52.1,5.7
							c25.3,0,49.7-3.8,72.7-10.8c0.1,0,0.1-0.1,0.1-0.2c0-0.1-0.1-0.2-0.2-0.1c-23.6,3.9-47.8,6.1-72.5,6.6
							c-17.6,0.3-35-0.3-52.2-1.8c-0.2,0-0.3,0.1-0.4,0.3C-31.3,91.7-31.2,91.9-31,92"/>
					</g>
				</g>
			</g>
		</g>
	</g>
</g>
<sodipodi:namedview  bordercolor="#666666" borderopacity="1.0" fit-margin-bottom="0" fit-margin-left="0" fit-margin-right="0" fit-margin-top="0" id="namedview11" inkscape:current-layer="Santander" inkscape:cx="105.82848" inkscape:cy="46.445767" inkscape:pagecheckerboard="0" inkscape:pageopacity="0.0" inkscape:pageshadow="2" inkscape:window-height="1017" inkscape:window-maximized="1" inkscape:window-width="1920" inkscape:window-x="1912" inkscape:window-y="-8" inkscape:zoom="2.3575884" pagecolor="#ffffff" showgrid="false">
	</sodipodi:namedview>
</svg>
