<?xml version="1.0" encoding="UTF-8"?>
<svg id="Layer_1" data-name="Layer 1" xmlns="http://www.w3.org/2000/svg" version="1.1" viewBox="0 0 138.4 43">
  <defs>
    <style>
      .cls-1 {
        fill: #115740;
        stroke-width: 0px;
      }
    </style>
  </defs>
  <path class="cls-1" d="M65.9,13.9c0-3.1-2.6-5.7-5.7-5.7s-5.7,2.6-5.7,5.7,2.6,5.7,5.7,5.7,5.7-2.6,5.7-5.7ZM60.1,17.8c-2.2,0-3.9-1.7-3.9-3.9s1.7-3.9,3.9-3.9,3.9,1.7,3.9,3.9-1.6,3.9-3.9,3.9ZM138.2,8.5v10.9h-1.4l-6-7.4v7.5h-1.9v-11h1.4l6,7.5v-7.5h1.9ZM112.9,19.4h-8.1v-10.9h8v1.9h-6.2v2.8h5.3v1.7h-5.3v2.7h6.3v1.9h0ZM93.4,19.4h-1.9v-10.9h1.9v4.7h5.6v-4.7h1.9v10.9h-1.9v-4.5h-5.6s0,4.5,0,4.5ZM50,8.5h1.9v10.9h-1.4l-6-7.5v7.5h-1.9v-10.9h1.4l6,7.5v-7.5h0ZM123.7,16.8s-1-1.5-1.1-1.7c1.6-.4,2.8-1.4,2.8-3.2s-1.2-3.5-3.9-3.5h-5v10.9h1.9v-4h2.3c.1.1.3.3.5.7.3.4.8,1.3.8,1.3,1,1.5,1.9,2.1,3.5,2.1h.9v-1.5h-.7c-.7,0-1.3-.2-1.9-1ZM121.4,13.6h-3.2v-3.5h3.2c1.3,0,2,.8,2,1.7.1.9-.4,1.7-2,1.7ZM88.7,10.1h-3.5v9.3h-1.9v-9.3h-3.5v-1.6h8.9v1.6h-.1ZM77.5,19.5h.9v-1.5h-.7c-.7,0-1.2-.3-1.7-1,0,0-1-1.5-1.1-1.7,1.6-.4,2.8-1.4,2.8-3.2s-1.2-3.5-3.9-3.5h-5v10.9h1.9v-4h2.3c.1.1.3.3.5.7.3.4.8,1.3.8,1.3.9,1.6,1.7,2.1,3.4,2.1h0ZM70.4,13.6v-3.5h3.2c1.3,0,2,.8,2,1.7s-.5,1.7-2,1.7h-3.2ZM42.6,26.6h8.9v1.6h-3.5v9.3h-1.9v-9.2h-3.5v-1.7h-.1ZM73.8,33c0,1.9-1,3-2.7,3h-.2c-1.6-.1-2.7-1.1-2.7-3v-6.4h-1.9v6.4c0,2.8,1.7,4.6,4.5,4.7h.2c2.8,0,4.5-1.9,4.5-4.7v-6.4h-1.9v6.4h0ZM83,30.9c-1.5-.2-2.6-.5-2.6-1.4s.9-1.5,2.5-1.5,2.2.5,2.6,1.1h0c0,.1,1.4-.8,1.4-.8h0c-.8-1.3-2.2-2-4.1-2s-2.7.4-3.5,1.1c-.5.5-.8,1.1-.8,2,0,2.5,2.2,3,4.2,3.2,1.9.3,2.7.8,2.7,1.6,0,1.5-2.1,1.7-2.7,1.7s-2.4-.2-3.3-1.7h0c0-.1-1.4.8-1.4.8h0c.9,1.7,2.5,2.6,4.7,2.6s4.5-.9,4.5-3.4-2-3-4.2-3.3h0ZM89.5,28.2h3.5v9.3h1.9v-9.3h3.5v-1.7h-8.8v1.7ZM63.5,36h.7v1.5h-.9c-.8,0-1.4-.1-2-.4-.5-.3-1-.8-1.5-1.5,0,0-.6-.9-.8-1.4-.1-.1-.1-.2-.2-.3,0-.1-.1-.1-.1-.1h0c0-.1,0-.2-.1-.2h-2.4v4h-1.9v-11h5c2.7,0,3.9,1.7,3.9,3.5s-.1.8-.2,1.2c-.1.4-.3.6-.5.9-.5.5-1.1.9-2.1,1,.1.2,1.1,1.7,1.1,1.7.6.7,1.1,1,1.9,1ZM61.4,30.1c0-.9-.6-1.7-2-1.7h-3.2v3.5h3.2c1.4-.1,2-.9,2-1.7h0ZM14.8,16.1l1.9,2.4v-10.1h10.5v-1.9h-8.1c.5-.6.7-1.5.7-2.4C19.8,1.9,17.9,0,15.7,0s-4.1,1.9-4.1,4.1.3,1.7.8,2.4H4.2v1.9h10.5v7.7M13.3,4.2c0-1.3,1-2.4,2.4-2.4s2.4,1,2.4,2.4-1,2.4-2.4,2.4-2.4-1-2.4-2.4ZM20.3,28.9h2.4L9.7,12.6h-3.2v2h2.4v12.6h-2.4v1.9h6.5v-1.9h-2.4v-10.3l9.7,12.1ZM31.4,22.3l-1.9,1.5c-.7,6.7-6.2,11.9-13,12.4v-8.8l-1.9-2.4v11.1c-6.8-.4-12.2-5.7-13-12.3L0,22.3c0,5.7,3.1,10.7,7.6,13.4l8.1,7.2,8.1-7.2c4.5-2.7,7.5-7.7,7.5-13.4h0ZM15.8,40.6l-3.4-3c1.1.3,2.3.4,3.4.4s2.4-.1,3.4-.4l-3.4,3ZM22.8,14.4h2.5v-1.9h-6.7v1.9h2.5v7.8h1.9v-7.8h-.1Z"/>
  <metadata>
    <sfw xmlns="http://ns.adobe.com/SaveForWeb/1.0/">
      <slices/>
      <sliceSourceBounds x="0.02" y="0.17" width="138.15" height="42.79" bottomLeftOrigin="true"/>
    </sfw>
  </metadata>
</svg>