<?xml version="1.0" encoding="UTF-8"?>
<svg id="Layer_1" data-name="Layer 1" xmlns="http://www.w3.org/2000/svg" version="1.1" viewBox="0 0 201.2 43">
  <defs>
    <style>
      .cls-1 {
        fill: #c21917;
        stroke-width: 0px;
      }
    </style>
  </defs>
  <g id="Layer_2" data-name="Layer 2">
    <g id="Layer_1-2" data-name="Layer 1-2">
      <path class="cls-1" d="M59.6,39.2l1.5-.6h0c2.2-.9,2.5-1.5,2.4-2.9v-5.9c1.7,4.2,3.2,7.2,6.5,7.2.5,0,.9,0,1.4-.2l1.3-.3-.9-1c-.4-.5-.8-1-1.1-1.6-.1-.2-.3-.5-.4-.7-.8-1.2-2.5-1.6-4-1-.7-1.3-1.3-3-2.1-5.1l-.2-.4c-.1-.3-.3-.6-.4-.9h0c0,0,0,0,0,0-.5-1.1-1-2.2-1.7-3.3-.5-.9-1.1-1.7-1.8-2.5-1.7-2-3.9-3.2-6.6-3.7-1.9-.3-3.2-.4-4.9-.5h-1.1c-.8,0-2.3-.2-3.8-.4-1,0-2.1-.2-2.9-.2,0-.2,0-.5,0-.7,0-.3,0-.6,0-.9h10.8c2.8,0,4.8-1.2,6-3.6,2.8,0,4.8-1.3,5.9-3.7h.4c2.9,0,4.9-1.3,6.1-3.9l.5-1.1h-36.5c-2.4,0-4.4,1.6-5.2,4h0c-.6-1.6-1.8-3.1-3.2-4C23.4.1,21.1-.3,19.3.2c-.6.2-1.2.4-1.7.8-.5.3-1,.8-1.4,1.3-.5.6-.9,1.3-1.2,2-.2.1-.4.3-.5.5l-.4.8h0c-.4,1-1,1.9-1.7,2.6-.5.6-.5,1.1-.5,1.5,0,.4.3.7.5.9h0c-.1.3-.2.6-.2.9,0,1,.8,1.7,1.9,1.7s1.4-.4,2-.8c.3-.2,1-.6,1.2-.7.3,0,.5.3.6.5,0,.8-1,1.2-1.7,1.3l-1.5.2c-1.1,0-1.6.7-1.6,1.2,0,.4.1.7.4,1h.1c0,.1.4.4.4.4l-1.6,2.5c-1.1-1-2.4-1.7-3.6-1.7-.8,0-1.4.2-1.9.7-.1.1-.3.3-.4.4h0c-1.1,0-2.1.5-2.7,1.4-.5.8-.3,2.2.3,3.3L0,24v19h72.8v-3.8h-13.3ZM68.9,34c.1.2.3.5.4.7.1.3.3.5.5.8-1.1,0-2-.7-2.8-1.9.7-.3,1.6,0,2,.5h0ZM53.2,17.8c2.3.4,4.3,1.4,5.7,3.1.3.4.6.7.9,1.2-3.9-.5-5.3-1.1-7.5-4.4.3,0,.6,0,.9.1ZM51.5,12.1h-7.4c.7-.6,1.2-1.3,1.6-2.1h10.1c-.9,1.5-2.3,2.1-4.3,2.1ZM57.4,8.5h-7.4c.7-.6,1.3-1.4,1.6-2.2h10.1c-.9,1.5-2.3,2.2-4.3,2.2ZM57.9,2.8h10c-.9,1.3-2.3,2-4.1,2h-7.4c.6-.6,1.1-1.2,1.5-2ZM17.3,3.2c.3-.4.7-.7,1.1-.9.4-.3.8-.5,1.3-.6.8-.2,1.6-.2,2.4,0l-2.7,1.6c-.3,0-.6,0-1,0-.4,0-.8,0-1.2,0,0,0,0,0,0-.1ZM14.2,15c0,0,0-.2.2-.2h1.3c1.6,0,3.2-.7,3.4-2.3,0-1.1-.8-2.2-1.9-2.2s-1.3.4-2,.9c-.5.3-.9.6-1.2.6s-.4-.1-.4-.2c0,0,0,0,0,0l.8-1.1-.7-.5c-.2,0-.4-.3-.4-.4,0,0,0-.2.1-.2.4-.4.7-.8,1-1.3.2-.3.3-.5.7-.5s.6.3.6.6h0c0,.2.3.4.6.4s.5-.2.6-.4c0,0,.7-.7.3-1-.4-.4-2.2.4-1.7-1.3v-.2c.3-.3,1.2-.9,2.9-.9.4,0,.7,0,1.1,0h.3s3.8-2.3,3.8-2.3c0,0,0,0,0,.1h0c.2,1.2-.5,2.5-1.7,3.2l-.5.3.3,1.7c-1,.3-1.6,1.1-1.6,2,0,.4,0,.8.2,1.2.1.6.2,1.2.3,1.7,0,1.8-2.4,2.9-4.5,2.9h0c0,0-1.4-.1-1.7-.4,0,0-.1-.1,0-.2h0ZM4.9,20.5c.3-.5,1-.8,1.8-.7h.6c0,.1.2-.5.2-.5,0-.1.1-.3.2-.4.2-.2.5-.3.8-.2.9,0,2,.7,3,1.7.3.4.6.8.9,1.2,0,0,.1.2.2.3,0,.1.1.2.1.2,0,0,.5.7.5.8.3-.4.6-.9.9-1.3,0,0,0,0,0-.1-.1-.2-.2-.4-.3-.6,0,0,0,0,0-.1h0s-.1-.2-.1-.2c-.1-.2-.3-.4-.3-.5l2-3.1c.4,0,.7.1,1.1.1h0c2.8,0,5.6-1.6,5.6-4.3h0c0-.7-.1-1.4-.3-2,0-.3-.1-.6-.1-.9,0-.3.4-.6,1-.6h.9l-.4-2.3c1.3-.9,2-2.4,2-3.9,1.4,1,2.3,2.8,2.5,4.8,0,.6,0,1.3-.2,2.2v.3c0,0,0,0,0,0-.3,1.1-.6,2.3-1,3.4l-.2.6.6.3c1,.6,1.6,1,1.6,2.3s-1.4,2.7-2.7,2.9l-1.8.3,1.5,1c.5.3.8.9.8,1.4,0,1-.8,1.7-1.8,1.7h-.6l-.2.5c-.6,1.8-1.2,2.7-3.1,2.9.1-.6.2-1.2.2-1.9,0-.2,0-.7,0-.8v-1.7c0,0-1.3,1.2-1.3,1.2-.4.4-1.1.7-1.9.9v-1.5l-8.6-2.2-3.1.8c-.7-.7-.8-1.8-.7-2.1ZM2.4,39.2l6.2-1.6,6.2,1.6H2.4ZM15.7,37.9l-7.1-1.8-7.1,1.8v-12.7l7.1-1.8,7.1,1.8v12.7ZM19,35.4c-.6.9-.7,2.2-.2,3.8h-1.6v-12.2c.6,0,1.2-.3,1.7-.5,0,.5-.1,1-.2,1.5,0,.1,0,.3,0,.4v.9c-.1,0,.7,0,.7,0,1.3,0,2.3-.2,3.1-.6v5.1c0,.1,0,.2-.2.2,0,0,0,0,0,0h-.2c-1.3,0-2.4.5-3,1.4h0ZM35.4,35.7c-.5.6-1.1,1.7-.7,3.5h-9.2c1,0,1.7-.3,2.2-.8.6-.6.7-1.5.6-2.1,0,0,.1-.3.6-.5l.8-.4-.5-.7c-.8-1.2-.4-3.9-.1-5.3h0c3.1,0,5.2-.6,7.3-1.3.6-.2,1.1-.4,1.7-.5h0s.6-.2,1.5-.4l3,5h0c.3.5.3.8-.2,1.4l-1.5,1.6-2.5-.5h0c-1.1-.2-2.3.3-3.1,1.1h0ZM36.2,39.2c-.3-1.1-.2-1.9.3-2.5.4-.5,1.1-.7,1.7-.6l2.9.5h0s.4,0,.4,0l2-2.2h0c.3-.4,1.4-1.6.3-3.2l-2.7-4.5c.4,0,.9,0,1.3-.1h0c1,0,2,.3,2.8.8.2.4.5,1,.8,1.6.6,1.2,1.3,2.6,1.5,3.2,0,.2.3.7-.4,1.4l-5.2,5.5h-5.8ZM53.9,39.2h-9.8l4.2-4.4c.8-.9,1.1-1.9.8-3-.2-.6-.8-1.7-1.3-2.9,1.7.8,4.2,1.5,9.3,1.9.6,0,.8.3.9.8l.2,2.2-2.7.6c-.9.2-1.6.8-1.9,1.6-.4.9-.2,2.1.3,3.2h0ZM55,36.6c.1-.4.4-.6.8-.7l4-.9-.4-3.6h0c0-.5-.4-2-2.3-2.1-7.2-.6-8.9-1.6-10.6-2.8,0,0,0,0,0,0h-.1c-1.2-.8-2.5-1.3-3.9-1.3-2,0-4.6.8-4.8.9-.6.2-1.2.4-1.8.6-2.3.7-4.2,1.4-7.5,1.3h-.6s-.1.6-.1.6c-.1.4-1,4.1-.1,6.4-.8.6-.8,1.3-.8,1.4,0,.8-.2,1-.2,1.1-.4.4-1.6.4-2.7.4h-.4l-.2.3c-.6.9-2.1,1.1-3,.9-.4-1.2-.4-2.1,0-2.7.5-.6,1.4-.7,1.8-.7h.2c1,0,1.7-.8,1.7-1.7v-6.5c.3-.5.5-1,.7-1.6,1.6-.3,2.8-1.6,2.8-3.2,0-.6-.2-1.2-.5-1.7,1.5-.7,2.7-2.1,2.7-4s-.9-2.7-1.8-3.3c.4-1.1.7-2.2,1-3.3l1.3-4.5c.6-1.8,2-2.9,3.8-2.9h22.3c-.9,1.3-2.3,2-4.1,2h-13.5l-.7,1.5h12.1c-.9,1.5-2.3,2.2-4.3,2.2h-8.7l-.7,1.5h7.8c-.9,1.5-2.3,2.1-4.3,2.1h-4.8l-.7,1.5h5c0,0,.2.3.2.9,0,1-.8,1.8-1.8,1.8-.3,0-.6,0-1.2-.3l-.7-.3-1.2,1,.7.3h0c1,.4,1.6.7,2.3.7.9,0,1.7-.4,2.3-1,.9,0,2.2.2,3.6.3,1.6.1,3.1.3,3.9.3.4,0,.8,0,1.1,0,.7,0,1.3,0,1.9.1,3,4.9,4.6,5.6,10.5,6.3.4.8.8,1.6,1.2,2.4v9.6h0c0,.5,0,.6,0,.7-.2.3-1.1.6-1.4.8l-5,1.9c-.7-.9-.9-1.8-.6-2.5h0Z"/>
      <polygon class="cls-1" points="14.1 27.1 9.4 25.9 9.4 27.5 14.1 28.7 14.1 27.1"/>
      <polygon class="cls-1" points="3.1 28.7 7.8 27.5 7.8 25.9 3.1 27.1 3.1 28.7"/>
      <polygon class="cls-1" points="3.1 31.8 7.8 30.6 7.8 29 3.1 30.3 3.1 31.8"/>
      <polygon class="cls-1" points="14.1 30.3 9.4 29 9.4 30.6 14.1 31.8 14.1 30.3"/>
      <polygon class="cls-1" points="14.1 33.4 9.4 32.2 9.4 33.7 14.1 34.9 14.1 33.4"/>
      <polygon class="cls-1" points="3.1 34.9 7.8 33.7 7.8 32.2 3.1 33.4 3.1 34.9"/>
      <path class="cls-1" d="M100.9,11.7V3.1c5.4,0,7.3-.3,8.3,6.3h.6V2.1h-14.6v1h2.5v18.8h-2.8v1h15v-7.7h-.8c-.7,5.8-2.2,6.7-6.3,6.7h-1.9v-9.1h1.1c1.9,0,2.9,1.1,3.3,4.3h.7V7.7s-.7,0-.7,0c0,0-.1,4.1-3.4,4h-1Z"/>
      <path class="cls-1" d="M95,12h-8.2v.9h2.8v6.8c-.5,1.7-3,2.4-3.8,2.4-5.2,0-4.9-7.7-4.9-9.7s-.2-9.7,4.9-9.7,5.4,3.6,6.2,6.7h.6c0-1.3,0-7.6,0-7.6,0,0-2.4,1.8-2.5,1.7,0,0-1.1-1.7-4.3-1.7-6.2,0-8.5,6.2-8.4,10.5,0,3.9,1.8,10.7,8.4,10.7s3.5-1.1,4.3-2.3c0,0,2.6,2.1,2.6,2.1v-9.9h2.2v-.9Z"/>
      <path class="cls-1" d="M191,15.2c-.7,5.8-2.2,6.7-6.3,6.7h-.3V3.1h2.6v-1h-8.6v1h2.6v18.8h-2.1l-7.7-20.3h-1.1s-6.4,18.5-6.4,18.5c0,0-.5,1.6-1.5,1.8-1,0-.9-.5-.9-.6v-3.6c0-.9,0-3.1-1-4-1.1-1.1-2.9-1.2-2.9-1.2,0,0,4.7-1,4.7-5.5s-2.2-4.7-5.8-4.8h-10.4v1h2.7v18.8h-2.7v1h8.5v-1h-2.7v-9h3.5c6.1.5-1.1,10,7,10h5.1v-1c-.3,0-2.1,0-2.3-1.2,0-.9,1.2-4.3,1.2-4.3h6.9s2.1,5.5,2.2,5.5h-2.4v1h18.8v-7.7h-.8ZM155.1,11.8h-3.4V3.1h4.3c2.5.4,2.6,3.3,2.6,4.2,0,2.3-.9,4.5-3.6,4.5ZM166.8,15.4l3-9,3.2,9h-6.2Z"/>
      <path class="cls-1" d="M135.7,3.1c5.3,0,7.3-.3,8.3,6.3h.6V2.1h-21.2v1h.6c.7,0,2.5,0,2.6,1.6h0v12l-9.9-14.6h-5.4v1h.9c1.1,0,2.6,0,2.6,1.6v15.3c0,1.5-2.2,2.1-3.2,2.1h0v.7h7.3v-.7c-.9,0-3.2-.6-3.2-2.1V6.6c4,5.6,11.4,16.3,11.5,16.3h.4V4.7c.1-1.6,1.9-1.6,2.6-1.6h2.4v18.8h-2.8v1h15v-7.7h-.8c-.7,5.8-2.2,6.7-6.3,6.7h-1.9v-9.1h1.1c1.9,0,2.9,1.1,3.3,4.3h.7V7.7s-.7,0-.7,0c0,0-.1,4.1-3.4,4h-1V3.1Z"/>
      <polygon class="cls-1" points="201.2 3.1 201.2 2.1 192.7 2.1 192.7 3.1 195.4 3.1 195.4 21.9 192.7 21.9 192.7 22.9 201.2 22.9 201.2 21.9 198.5 21.9 198.5 3.1 201.2 3.1"/>
      <path class="cls-1" d="M159.7,42.1v-14.2h-.8c-.8,0-1.3,0-1.7.2-.3.1-.7.4-1,.8-.7,1-1.2,2.1-1.4,3.3h-.3l.2-4.9h12.5l.2,4.9h-.3c-.2-1.2-.7-2.3-1.4-3.3-.3-.4-.6-.7-1-.8-.3-.1-.9-.2-1.7-.2h-.8v14.2h2.1v.7h-6.8v-.7h2.1Z"/>
      <path class="cls-1" d="M181.2,42.1v-14.2h-.8c-.8,0-1.3,0-1.7.2-.3.1-.7.4-1,.8-.7,1-1.2,2.1-1.4,3.3h-.3l.2-4.9h12.5l.2,4.9h-.3c-.2-1.2-.7-2.3-1.4-3.3-.3-.4-.6-.7-1-.8s-.9-.2-1.7-.2h-.8v14.2h2.1v.7h-6.8v-.7h2.1Z"/>
      <path class="cls-1" d="M152.2,28.1l1.3-1v4.5h-.4c0-.4,0-.9-.2-1.3,0-.3-.2-.7-.4-1-.2-.3-.4-.5-.6-.7-.2-.2-.4-.3-.7-.5-.6-.3-1.2-.5-1.8-.5-.8,0-1.4.1-1.8.4-.8.5-1.3,1.3-1.4,2.3,0,.4.1.7.3,1,.4.6,1,1,1.7,1.2l2.9.7c.8.2,1.5.5,2,.9.4.4.8.8,1.1,1.3.2.4.4.8.4,1.2,0,.3,0,.5,0,.8h0c0,.8,0,1.5-.3,2.2-.2.5-.5,1-.8,1.5-.3.4-.7.7-1.1.9-.4.2-.8.4-1.2.5-.3,0-.7.2-1,.2-.3,0-.5,0-.6,0h0c-.4,0-.8,0-1.2-.2-.4,0-.8-.2-1.1-.4-.4-.2-.8-.4-1.1-.8l-1.5,1.1v-5.1h.4c0,.8.2,1.6.6,2.4.2.3.3.6.5.9.2.3.5.5.8.8.3.2.7.4,1.1.5.5.1,1,.2,1.5.2h0c0,0,.2,0,.4,0,.2,0,.5,0,.7-.1.3,0,.6-.2.9-.3.3-.1.6-.3.8-.5.3-.2.5-.6.6-.9.2-.4.3-.8.2-1.3h0c0-.2,0-.4,0-.5,0-.3-.1-.6-.3-.8-.2-.3-.4-.6-.7-.9-.3-.3-.7-.5-1.3-.6l-3.2-.8c-.5-.1-1-.4-1.5-.7-.4-.3-.7-.7-1-1.1-.3-.5-.5-1.1-.5-1.9,0-1.9,1.1-3.7,2.9-4.3.5-.2,1-.3,1.5-.3.3,0,.7,0,1,.1.3,0,.6.2.9.3.3.1.6.3.9.6"/>
      <path class="cls-1" d="M201,42.8h-11.4v-.8h2v-14.3h-2v-.8h10.9v5.6h-.3c0-1.2-.1-2.1-.4-2.8s-.6-1.1-.9-1.4c-.3-.3-.8-.6-1.3-.6h-3.7v6.6h1.2c.4,0,.9-.3,1.2-.6.3-.3.5-.7.6-1.1.2-.5.3-.9.3-1.4h.3v7h-.3c0-.5-.1-1-.3-1.5-.1-.4-.3-.8-.6-1.1-.3-.3-.7-.6-1.2-.6h-1.3v6.9h4c.5,0,.9-.3,1.3-.6.3-.3.6-.8.9-1.4.3-.7.4-1.6.4-2.8h.5v5.6Z"/>
      <path class="cls-1" d="M143.8,42.8h-11.4v-.8h2v-14.3h-2v-.8h10.9v5.6h-.3c0-1.2-.1-2.1-.4-2.8s-.6-1.1-.9-1.4c-.3-.3-.8-.6-1.3-.6h-3.7v6.6h1.2c.4,0,.9-.3,1.2-.6.3-.3.5-.7.6-1.1.2-.5.3-.9.3-1.4h.3v7h-.3c0-.5-.1-1-.3-1.5-.1-.4-.3-.8-.6-1.1-.3-.3-.7-.6-1.2-.6h-1.3v6.9h4c.5,0,.9-.3,1.3-.6.3-.3.6-.8.9-1.4.3-.7.4-1.6.4-2.8h.5v5.6Z"/>
      <path class="cls-1" d="M177.8,42l-5.8-15.3h-.9s-4.8,13.9-4.8,14c0,0-.4,1.2-1.2,1.4,0,0-5,0-5.1,0l3.2.8c0,0,1.8,0,1.9,0h3.8v-.8c-.2,0-1.6,0-1.7-.9,0-.7.9-3.2.9-3.2h5.2s1.6,4.2,1.6,4.2h-1.8v.8h8.3v-.8h-3.8ZM168.7,37.1l2.3-6.8,2.4,6.8h-4.7Z"/>
      <path class="cls-1" d="M102.7,42.7h-11.4v-.8h2v-14.3h-2v-.8h10.9v5.6h-.3c0-1.2-.1-2.1-.4-2.8-.3-.7-.6-1.1-.9-1.4-.3-.3-.8-.6-1.3-.6h-3.7v6.6h1.2c.4,0,.9-.3,1.2-.6.3-.3.5-.7.6-1.1.2-.5.3-.9.3-1.4h.3v7h-.3c0-.5-.1-1-.3-1.5-.1-.4-.3-.8-.6-1.1-.3-.3-.7-.6-1.2-.6h-1.3v6.9h4c.5,0,.9-.3,1.3-.6.3-.3.6-.8.9-1.4.3-.7.4-1.6.4-2.8h.5v5.6Z"/>
      <path class="cls-1" d="M91.5,42h-.3c-.7,0-.8-.4-.8-.5v-2.7c0-.7,0-2.3-.8-3.1-.8-.8-2.2-.9-2.2-.9,0,0,3.6-.7,3.6-4.2s-1.7-3.6-4.5-3.7h-9.2v.8h3.4v14.3h-2v.8h6.5v-.8h-2v-6.9h2.7c4.7.4-.8,7.7,5.3,7.7h.4v-.8ZM85.7,34.3h-2.6v-6.6h3.3c1.9.3,2,2.5,2,3.2,0,1.7-.7,3.4-2.7,3.4Z"/>
      <path class="cls-1" d="M126.1,36.9c-.6,4.4-1.7,5.1-4.8,5.1h-.2v-14.3h2v-.8h-6.6v.8h2v14.3h-1.6l-5.9-15.5h-.9s-4.9,14.1-4.9,14.1c0,0-.4,1.2-1.2,1.4-.2,0-.3,0-.5,0v.9c.2,0,.4,0,.5,0h3.9v-.8c-.2,0-1.6,0-1.7-.9,0-.7.9-3.3.9-3.3h5.3s1.6,4.2,1.7,4.2h-1.8v.8h14.3v-5.9h-.6ZM107.6,37l2.3-6.9,2.4,6.9h-4.7Z"/>
    </g>
  </g>
  <metadata>
    <sfw xmlns="http://ns.adobe.com/SaveForWeb/1.0/">
      <slices/>
      <sliceSourceBounds x="0" y="0.01" width="201.19" height="42.98" bottomLeftOrigin="true"/>
    </sfw>
  </metadata>
</svg>