<?xml version="1.0" encoding="utf-8"?>
<!-- Generator: Adobe Illustrator 27.6.1, SVG Export Plug-In . SVG Version: 6.00 Build 0)  -->
<svg version="1.1" id="Layer_1" xmlns="http://www.w3.org/2000/svg" xmlns:xlink="http://www.w3.org/1999/xlink" x="0px" y="0px"
	 viewBox="0 0 114 80" style="enable-background:new 0 0 114 80;" xml:space="preserve">
<style type="text/css">
	.st0{fill:#FFFFFF;filter:url(#Adobe_OpacityMaskFilter);}
	.st1{mask:url(#mask0_885_593_00000142163787457238218600000011597433210125403795_);}
	.st2{fill-rule:evenodd;clip-rule:evenodd;fill:#00A1E0;}
	.st3{fill-rule:evenodd;clip-rule:evenodd;fill:#FFFFFE;}
</style>
<defs>
	<filter id="Adobe_OpacityMaskFilter" filterUnits="userSpaceOnUse" x="-0.1" y="0.23" width="113.99" height="79.8">
		<feColorMatrix  type="matrix" values="1 0 0 0 0  0 1 0 0 0  0 0 1 0 0  0 0 0 1 0"/>
	</filter>
</defs>
<mask maskUnits="userSpaceOnUse" x="-0.1" y="0.23" width="113.99" height="79.8" id="mask0_885_593_00000142163787457238218600000011597433210125403795_">
	<path class="st0" d="M0.03,0.21h113.93v79.58H0.03V0.21z"/>
</mask>
<g class="st1">
	<path class="st2" d="M47.33,8.92c3.68-3.83,8.8-6.2,14.45-6.2c7.54,0,14.07,4.19,17.59,10.43c3.12-1.4,6.51-2.12,9.93-2.12
		c13.57,0,24.59,11.1,24.59,24.8c0,13.7-11.02,24.8-24.59,24.8c-1.66,0-3.28-0.17-4.86-0.48c-3.08,5.49-8.96,9.21-15.66,9.21
		c-2.73,0.01-5.42-0.61-7.87-1.81c-3.12,7.33-10.39,12.48-18.85,12.48c-8.84,0-16.34-5.57-19.23-13.4c-1.29,0.27-2.6,0.41-3.91,0.41
		C8.4,67.04-0.1,58.41-0.1,47.81c0-7.12,3.83-13.32,9.51-16.67c-1.2-2.78-1.83-5.77-1.82-8.8c0-12.23,9.93-22.12,22.16-22.12
		c7.16,0,13.57,3.41,17.59,8.71"/>
</g>
<path class="st3" d="M16.5,41.59c-0.07,0.19,0.03,0.23,0.05,0.26c0.21,0.16,0.43,0.27,0.65,0.39c1.16,0.62,2.26,0.8,3.41,0.8
	c2.34,0,3.79-1.24,3.79-3.25v-0.04c0-1.85-1.64-2.53-3.17-3.01l-0.2-0.06c-1.16-0.38-2.16-0.7-2.16-1.47v-0.04
	c0-0.65,0.59-1.13,1.49-1.13c1.01,0,2.2,0.33,2.97,0.76c0,0,0.23,0.15,0.31-0.07c0.04-0.12,0.44-1.16,0.48-1.28
	c0.04-0.12-0.03-0.22-0.11-0.26c-0.88-0.54-2.09-0.9-3.35-0.9l-0.23,0c-2.14,0-3.64,1.29-3.64,3.15v0.04c0,1.95,1.65,2.59,3.19,3.03
	l0.25,0.08c1.12,0.35,2.09,0.65,2.09,1.43v0.04c0,0.72-0.63,1.26-1.65,1.26c-0.39,0-1.65-0.01-3.01-0.87
	c-0.16-0.1-0.26-0.17-0.39-0.24c-0.07-0.04-0.23-0.11-0.31,0.11L16.5,41.59 M50.72,41.59c-0.07,0.19,0.03,0.23,0.05,0.26
	c0.21,0.16,0.43,0.27,0.65,0.39c1.16,0.62,2.26,0.8,3.41,0.8c2.34,0,3.79-1.24,3.79-3.25v-0.04c0-1.85-1.64-2.53-3.17-3.01
	l-0.2-0.06c-1.16-0.38-2.16-0.7-2.16-1.47v-0.04c0-0.65,0.59-1.14,1.49-1.14c1.01,0,2.2,0.33,2.97,0.76c0,0,0.23,0.15,0.31-0.07
	c0.04-0.12,0.44-1.16,0.47-1.28c0.04-0.12-0.03-0.22-0.11-0.26c-0.88-0.54-2.09-0.9-3.35-0.9l-0.23,0c-2.14,0-3.64,1.29-3.64,3.15
	v0.04c0,1.95,1.65,2.59,3.19,3.03l0.25,0.08c1.13,0.35,2.09,0.65,2.09,1.43v0.04c0,0.72-0.63,1.26-1.65,1.26
	c-0.4,0-1.65-0.01-3.01-0.87c-0.16-0.1-0.26-0.16-0.39-0.24c-0.04-0.03-0.24-0.1-0.31,0.11L50.72,41.59 M74.09,37.66
	c0,1.13-0.21,2.02-0.62,2.66c-0.41,0.62-1.03,0.93-1.9,0.93c-0.87,0-1.49-0.3-1.89-0.93c-0.41-0.63-0.62-1.52-0.62-2.66
	c0-1.13,0.21-2.02,0.62-2.64c0.41-0.62,1.02-0.92,1.89-0.92s1.49,0.3,1.9,0.92C73.88,35.65,74.09,36.54,74.09,37.66 M76.04,35.57
	c-0.19-0.65-0.49-1.22-0.89-1.7c-0.4-0.48-0.9-0.86-1.5-1.14c-0.59-0.28-1.3-0.42-2.09-0.42c-0.8,0-1.5,0.14-2.09,0.42
	c-0.59,0.28-1.1,0.66-1.5,1.14c-0.4,0.48-0.7,1.05-0.89,1.7c-0.19,0.65-0.29,1.35-0.29,2.1c0,0.75,0.1,1.45,0.29,2.1
	c0.19,0.65,0.49,1.22,0.89,1.7c0.4,0.48,0.9,0.86,1.5,1.13c0.6,0.27,1.3,0.41,2.09,0.41c0.79,0,1.5-0.14,2.09-0.41
	c0.59-0.27,1.1-0.65,1.5-1.13c0.4-0.48,0.7-1.05,0.89-1.7c0.19-0.65,0.29-1.35,0.29-2.1C76.32,36.92,76.23,36.22,76.04,35.57
	 M92.08,40.93c-0.06-0.19-0.25-0.12-0.25-0.12c-0.28,0.11-0.59,0.21-0.91,0.26c-0.32,0.05-0.69,0.08-1.07,0.08
	c-0.94,0-1.7-0.28-2.23-0.84c-0.54-0.56-0.84-1.45-0.84-2.67c0-1.11,0.27-1.94,0.75-2.57c0.47-0.63,1.2-0.96,2.17-0.96
	c0.8,0,1.42,0.09,2.06,0.3c0,0,0.15,0.07,0.23-0.13c0.17-0.47,0.3-0.81,0.48-1.33c0.05-0.15-0.08-0.21-0.12-0.23
	c-0.25-0.1-0.85-0.26-1.3-0.33c-0.42-0.06-0.91-0.1-1.47-0.1c-0.82,0-1.55,0.14-2.17,0.42c-0.62,0.28-1.15,0.66-1.57,1.14
	c-0.42,0.48-0.74,1.05-0.95,1.7c-0.21,0.65-0.32,1.35-0.32,2.1c0,1.62,0.44,2.93,1.3,3.89c0.86,0.96,2.16,1.45,3.85,1.45
	c1,0,2.03-0.2,2.76-0.49c0,0,0.14-0.07,0.08-0.23L92.08,40.93 M95.49,36.58c0.09-0.63,0.27-1.15,0.54-1.56
	c0.41-0.62,1.02-0.96,1.89-0.96c0.87,0,1.44,0.34,1.85,0.96c0.27,0.41,0.39,0.95,0.44,1.56l-4.73,0L95.49,36.58z M102.07,35.19
	c-0.17-0.62-0.58-1.26-0.85-1.55c-0.43-0.46-0.84-0.78-1.26-0.95c-0.6-0.25-1.24-0.39-1.89-0.38c-0.83,0-1.57,0.14-2.18,0.42
	c-0.61,0.29-1.12,0.67-1.52,1.16c-0.4,0.49-0.7,1.06-0.9,1.72c-0.19,0.65-0.29,1.36-0.29,2.11c0,0.76,0.1,1.47,0.3,2.11
	c0.2,0.65,0.52,1.21,0.96,1.68c0.44,0.47,0.99,0.84,1.66,1.1c0.67,0.26,1.47,0.39,2.4,0.39c1.91-0.01,2.92-0.43,3.33-0.66
	c0.07-0.04,0.14-0.11,0.06-0.32l-0.43-1.21c-0.07-0.18-0.25-0.12-0.25-0.12c-0.47,0.18-1.14,0.49-2.71,0.49
	c-1.03,0-1.78-0.3-2.26-0.78c-0.49-0.49-0.73-1.19-0.77-2.2l6.62,0.01c0,0,0.17,0,0.19-0.17C102.28,37.97,102.5,36.68,102.07,35.19
	L102.07,35.19z M42.59,36.58c0.09-0.63,0.27-1.15,0.54-1.56c0.41-0.62,1.02-0.96,1.89-0.96s1.44,0.34,1.85,0.96
	c0.27,0.41,0.39,0.95,0.44,1.56l-4.73,0L42.59,36.58z M49.17,35.19c-0.17-0.62-0.58-1.26-0.85-1.55c-0.43-0.46-0.84-0.78-1.26-0.95
	c-0.6-0.25-1.24-0.39-1.89-0.38c-0.83,0-1.57,0.14-2.18,0.42c-0.61,0.29-1.12,0.67-1.52,1.16c-0.4,0.49-0.7,1.06-0.9,1.72
	c-0.19,0.65-0.29,1.36-0.29,2.11c0,0.76,0.1,1.47,0.3,2.11c0.2,0.65,0.52,1.21,0.96,1.68c0.44,0.47,0.99,0.84,1.66,1.1
	c0.67,0.26,1.47,0.39,2.4,0.39c1.91-0.01,2.92-0.43,3.33-0.66c0.07-0.04,0.14-0.11,0.06-0.32l-0.43-1.21
	c-0.07-0.18-0.25-0.12-0.25-0.12c-0.47,0.18-1.14,0.49-2.71,0.49c-1.02,0-1.78-0.3-2.26-0.78c-0.49-0.49-0.73-1.19-0.77-2.2
	l6.62,0.01c0,0,0.17,0,0.19-0.17C49.38,37.97,49.6,36.68,49.17,35.19L49.17,35.19z M28.31,40.89c-0.26-0.21-0.3-0.26-0.38-0.39
	c-0.13-0.2-0.2-0.49-0.2-0.86c0-0.58,0.19-1,0.59-1.28c0,0,0.57-0.49,1.92-0.48c0.6,0.01,1.2,0.06,1.79,0.15v3h0
	c0,0-0.84,0.18-1.78,0.24C28.9,41.36,28.31,40.89,28.31,40.89L28.31,40.89z M30.94,36.24c-0.27-0.02-0.62-0.03-1.03-0.03
	c-0.57,0-1.11,0.07-1.63,0.21c-0.52,0.14-0.98,0.35-1.38,0.64c-0.4,0.28-0.73,0.66-0.96,1.09c-0.23,0.44-0.35,0.95-0.35,1.52
	c0,0.59,0.1,1.09,0.3,1.51c0.2,0.41,0.49,0.77,0.86,1.03c0.37,0.27,0.82,0.46,1.34,0.58c0.52,0.12,1.11,0.18,1.75,0.18
	c0.68,0,1.35-0.06,2.01-0.17c0.56-0.1,1.11-0.2,1.66-0.32c0.22-0.05,0.46-0.12,0.46-0.12c0.16-0.04,0.15-0.22,0.15-0.22l0-6.03
	c0-1.32-0.35-2.31-1.05-2.92c-0.7-0.61-1.71-0.91-3.03-0.91c-0.49,0-1.29,0.07-1.77,0.16c0,0-1.44,0.28-2.04,0.75
	c0,0-0.13,0.08-0.06,0.26l0.47,1.26c0.06,0.16,0.22,0.11,0.22,0.11s0.05-0.02,0.11-0.05c1.27-0.69,2.88-0.67,2.88-0.67
	c0.71,0,1.26,0.14,1.63,0.43c0.36,0.28,0.54,0.7,0.54,1.57v0.28c-0.57-0.08-1.09-0.13-1.09-0.13L30.94,36.24z M84.13,32.84
	c0.01-0.02,0.01-0.05,0.01-0.07c0-0.02,0-0.05-0.01-0.07c-0.01-0.02-0.02-0.04-0.04-0.06c-0.02-0.02-0.04-0.03-0.06-0.04
	c-0.11-0.04-0.67-0.16-1.11-0.19c-0.83-0.05-1.29,0.09-1.7,0.27c-0.41,0.18-0.86,0.48-1.11,0.83l0-0.8c0-0.11-0.08-0.2-0.19-0.2
	h-1.69c-0.11,0-0.19,0.09-0.19,0.2v9.84c0,0.05,0.02,0.1,0.06,0.14c0.04,0.04,0.09,0.06,0.14,0.06h1.73c0.05,0,0.1-0.02,0.14-0.06
	c0.04-0.04,0.06-0.09,0.06-0.14V37.6c0-0.66,0.07-1.32,0.22-1.73c0.14-0.41,0.34-0.74,0.58-0.97c0.23-0.23,0.51-0.39,0.82-0.49
	c0.29-0.08,0.59-0.12,0.89-0.12c0.35,0,0.72,0.09,0.72,0.09c0.13,0.01,0.2-0.06,0.24-0.18c0.11-0.3,0.44-1.21,0.5-1.39"/>
<path class="st3" d="M67.94,28.29c-0.21-0.06-0.43-0.12-0.65-0.15c-0.3-0.05-0.6-0.07-0.9-0.07c-1.19,0-2.14,0.34-2.8,1
	c-0.66,0.66-1.1,1.67-1.33,3l-0.08,0.45h-1.5c0,0-0.18-0.01-0.22,0.19l-0.25,1.37c-0.02,0.13,0.04,0.21,0.22,0.21h1.46l-1.48,8.27
	c-0.12,0.67-0.25,1.21-0.4,1.63c-0.14,0.41-0.29,0.72-0.46,0.94c-0.17,0.22-0.33,0.37-0.6,0.47c-0.23,0.08-0.49,0.11-0.78,0.11
	c-0.16,0-0.37-0.03-0.53-0.06c-0.16-0.03-0.24-0.07-0.36-0.12c0,0-0.17-0.07-0.24,0.11c-0.05,0.14-0.44,1.21-0.49,1.34
	c-0.05,0.13,0.02,0.23,0.1,0.26c0.19,0.07,0.34,0.11,0.6,0.18c0.37,0.09,0.68,0.09,0.97,0.09c0.61,0,1.16-0.09,1.62-0.25
	c0.46-0.17,0.86-0.46,1.22-0.85c0.38-0.43,0.63-0.87,0.86-1.48c0.23-0.6,0.42-1.35,0.58-2.22L64,34.3h2.18c0,0,0.18,0.01,0.22-0.19
	l0.25-1.37c0.02-0.13-0.04-0.21-0.22-0.21h-2.11c0.01-0.05,0.11-0.79,0.35-1.49c0.1-0.3,0.3-0.54,0.46-0.7
	c0.15-0.16,0.34-0.28,0.55-0.34c0.23-0.07,0.47-0.11,0.71-0.1c0.2,0,0.39,0.02,0.54,0.05c0.2,0.04,0.28,0.07,0.34,0.08
	c0.22,0.07,0.24,0,0.29-0.1l0.51-1.39C68.11,28.37,67.99,28.31,67.94,28.29z M38.42,42.58c0,0.11-0.08,0.2-0.19,0.2h-1.75
	c-0.11,0-0.19-0.09-0.19-0.2v-14.1c0-0.11,0.08-0.2,0.19-0.2h1.75c0.11,0,0.19,0.09,0.19,0.2V42.58z"/>
</svg>
