<?xml version="1.0" encoding="UTF-8"?>
<svg id="Layer_1" data-name="Layer 1" xmlns="http://www.w3.org/2000/svg" version="1.1" viewBox="0 0 246.5 43">
  <defs>
    <style>
      .cls-1 {
        fill: #ea1d25;
        stroke-width: 0px;
      }
    </style>
  </defs>
  <g id="g8">
    <path id="path6" class="cls-1" d="M32.7,19.7c-.1-1.6-.5-3.1-1.3-4.4l-7-12.3c-.5-.9-.9-2-1.1-3l-.3.5c-1.8,3-1.8,6.8,0,9.8l5.7,9.8c1.8,3,1.8,6.8,0,9.8l-.3.5c-.2-1-.6-2.1-1.1-3l-5.2-9-3.3-5.8c-.5-.9-.9-2-1.1-3l-.3.5c-1.8,3-1.8,6.7,0,9.8h0l5.7,9.8c1.8,3,1.8,6.8,0,9.8l-.3.5c-.2-1-.6-2.1-1.1-3l-7.1-12.3c-.9-1.7-1.3-3.5-1.3-5.4C5.4,21.5.1,25.7.1,30.6s10.1,12.3,22.6,12.3,22.6-5.5,22.6-12.3c.1-4.7-5.1-8.9-12.7-10.9ZM54.1,40.7c.1-1.8.3-2.9.8-4.3,2.4,1.1,5.5,1.7,7.8,1.7,3.9,0,6.2-1.2,6.2-3.8s-1.7-3.6-5.6-5.4l-2.2-.8c-4-1.8-6.7-4-6.7-8.5s3.4-8,10.2-8,5.4.4,7.8,1.2c-.1,1.7-.4,3-.8,4.2-2.3-.8-5.1-1.2-7-1.2-3.7,0-5.4,1.4-5.4,3.7s1.7,3.5,4.7,4.8l2.3.9c5.4,2.3,7.6,4.8,7.6,8.9s-3.7,8.3-11,8.3-6.3-.5-8.7-1.7ZM96.6,20.4v21.3h-4.3l-.2-2.6c-1.2,1.9-3,3.1-6,3.1-5.6,0-9.4-4.1-9.4-11.3s4-11.8,11.9-11.8c3.1.1,5.7.4,8.1,1.2ZM91.9,36.8v-13.3c-.9-.2-2.1-.2-3.4-.2-4.9,0-7.1,3-7.1,7.8s1.8,7.4,5.9,7.4c2-.1,3.4-.7,4.7-1.7ZM120.5,27.4v14.3h-4.7v-13.4c0-3.4-1.1-5-5.8-5s-2.4.1-3.7.3v18.1h-4.7v-21.3c3-.7,6.3-1.2,8.5-1.2,7.9.1,10.3,3.1,10.3,8.3ZM133.6,38.2c1.3,0,2.7-.2,3.6-.6-.1,1.2-.3,2.7-.5,3.9-1.2.5-2.7.7-3.9.7-4.5,0-7.4-2.1-7.4-7.2V12.6c1.4-.5,3.2-.7,4.7-.7v8.1h7.4c-.1,1.4-.2,2.8-.4,4h-7v10.4c0,2.7,1.3,3.8,3.6,3.8ZM158.7,20.4v21.3h-4.3l-.2-2.6c-1.2,1.9-3,3.1-6,3.1-5.6,0-9.4-4.1-9.4-11.3s4-11.8,11.9-11.8c3.1.1,5.6.4,8.1,1.2h0ZM153.9,36.8v-13.3c-.9-.2-2.1-.2-3.4-.2-4.9,0-7.1,3-7.1,7.8s1.8,7.4,5.9,7.4c2-.1,3.5-.7,4.7-1.7ZM182.7,27.4v14.3h-4.8v-13.4c0-3.4-1.1-5-5.8-5s-2.4.1-3.7.3v18.1h-4.7v-21.3c3-.7,6.3-1.2,8.5-1.2,7.9.1,10.4,3.1,10.4,8.3h0ZM206.3,11.9v29.8h-4.3l-.2-2.7c-1.2,2-3,3.2-6.1,3.2-5.6,0-9.4-4.1-9.4-11.3s4-11.8,11.9-11.8,2.4.1,3.5.3v-7c1.4-.4,3.1-.5,4.7-.5ZM201.7,36.8v-13.1c-1.2-.2-2.5-.4-3.7-.4-4.7,0-6.8,2.9-6.8,7.8s1.8,7.4,5.9,7.4c1.9-.1,3.4-.7,4.7-1.7h0ZM229.9,32.6h-15c.6,3.8,2.8,5.6,7,5.6s5.2-.5,7.4-1.7c-.2,1.2-.4,2.9-.7,4.2-2.2.9-4.3,1.3-6.9,1.3-7.9,0-11.6-4.3-11.6-11.6s2.9-11.4,10.3-11.4,9.6,4.3,9.6,9.7,0,2.5-.2,3.7h0ZM214.9,28.6h10.5c0-3.5-1.9-5.6-5.1-5.6-3.4.1-5.2,2-5.5,5.6ZM246.3,19.4c0,1.4-.2,3.1-.4,4-1.1-.1-2.2-.2-3.5-.2s-2.3.1-3.4.2v18.2h-4.7v-21.3c2-.7,5.4-1.2,8-1.2,1.3.1,3,.1,4,.3Z"/>
  </g>
  <metadata>
    <sfw xmlns="http://ns.adobe.com/SaveForWeb/1.0/">
      <slices/>
      <sliceSourceBounds x="0.14" y="-147.89" width="246.19" height="42.89" bottomLeftOrigin="true"/>
    </sfw>
  </metadata>
</svg>