<?xml version="1.0" encoding="utf-8"?>
<!-- Generator: Adobe Illustrator 27.6.1, SVG Export Plug-In . SVG Version: 6.00 Build 0)  -->
<svg version="1.1" id="Layer_1" xmlns="http://www.w3.org/2000/svg" xmlns:xlink="http://www.w3.org/1999/xlink" x="0px" y="0px"
	 viewBox="0 0 560 220" style="enable-background:new 0 0 560 220;" xml:space="preserve">
<style type="text/css">
	.st0{fill:#38D200;}
	.st1{fill:#0473EA;}
	.st2{fill:#525355;}
</style>
<path class="st0" d="M107.36,215.77l-91.75-59.73c0,0-11.51-6.62-14.14-18.94c-3.7-17.3,8.5-32.14,8.5-32.14l119.08,77.55
	c9.19,5.99,11.69,18.23,5.79,27.47C128.76,219.47,116.3,221.56,107.36,215.77L107.36,215.77z"/>
<path class="st1" d="M20.45,92.16c0,0-14.05-8.49-14.05-28.11c0-19.56,14.05-27.94,14.05-27.94L70.61,3.27
	c9.26-5.87,21.53-3.12,27.4,6.14c5.77,9.11,3.22,21.16-5.76,27.15L49.97,64.09L122,111c0,0,12.97,7.43,15.52,19.97
	c3.57,17.49-8.48,31.91-8.48,31.91L20.45,92.16z M20.19,218.93c4.71,0,8.06-1.49,11.33-3.61L56,199.37l-24.49-15.95
	c-3.3-2.13-6.76-3.61-11.33-3.61c-10.8-0.15-19.69,8.48-19.84,19.28s8.48,19.69,19.28,19.84C19.81,218.94,20,218.94,20.19,218.93z"
	/>
<path class="st0" d="M114.87,44.53c-4.71,0-8.06,1.49-11.33,3.61L79.05,64.09l24.49,15.95c3.3,2.13,6.77,3.62,11.33,3.62
	c10.8,0,19.56-8.76,19.56-19.56S125.67,44.53,114.87,44.53L114.87,44.53"/>
<path class="st2" d="M216.74,156.84c5.18,0,10.01-1.4,13.78-4.65v7.28c-4.21,2.9-9.22,4.12-14.48,4.12
	c-13.26,0-22.47-9.22-22.47-22.47c0-13.17,9.48-22.38,22.64-22.38c5.18,0,10,1.49,13.87,4.39v7.99c-3.42-3.68-8.16-5.62-13.43-5.62
	c-9.22,0-15.71,6.41-15.71,15.62C200.94,150.34,207.52,156.84,216.74,156.84z M245.52,162.81h-7.11v-56.98l7.11,4.39v16.69
	c3.25-5,8.43-8.16,15.01-8.16c10.88,0,16.68,7.98,16.68,18.6v25.45h-7.2v-24.22c0-8.43-3.69-12.9-11.24-12.9
	c-7.99,0-13.26,6.84-13.26,15.45L245.52,162.81L245.52,162.81z M321.35,155.43c-3.6,5.09-9.13,8.16-15.88,8.16
	c-12.64,0-21.68-9.39-21.68-22.2c0-13.07,9.04-22.64,21.68-22.64c6.76,0,12.29,3.16,15.88,8.34v-7.55h7.2v43.27h-7.2V155.43
	L321.35,155.43z M291.16,141.3c0,8.95,6.23,15.53,15.01,15.53c8.86,0,15.18-6.58,15.18-15.53c0-9.13-6.32-15.8-15.18-15.8
	C297.39,125.51,291.16,132.18,291.16,141.3L291.16,141.3z M346.72,162.81h-7.11v-43.27h7.11v9.21c3.42-6.41,8.95-10,15.8-10v8.16
	c-8.6-1.23-15.8,4.56-15.8,15.27V162.81L346.72,162.81z M435.36,143.94h-34.14c1.05,7.81,7.2,12.99,15.8,12.99
	c5.53,0,10.88-1.58,15.45-4.83v6.85c-4.65,3.16-9.92,4.65-15.45,4.65c-13.6,0-23.34-8.78-23.34-22.04
	c0-12.99,8.25-22.82,21.33-22.82c12.46,0,20.63,9.21,20.63,21.59C435.63,141.54,435.54,142.75,435.36,143.94z M401.31,138.15h26.77
	c-0.7-7.37-5.35-12.81-12.99-12.81C407.19,125.33,402.45,130.86,401.31,138.15L401.31,138.15z M450.55,162.81h-7.11v-43.27h7.11
	v9.21c3.42-6.41,8.95-10,15.8-10v8.16c-8.6-1.23-15.8,4.56-15.8,15.27V162.81L450.55,162.81z M508.56,143.94h-34.14
	c1.05,7.81,7.2,12.99,15.8,12.99c5.53,0,10.88-1.58,15.45-4.83v6.85c-4.65,3.16-9.92,4.65-15.45,4.65
	c-13.6,0-23.34-8.78-23.34-22.04c0-12.99,8.25-22.82,21.33-22.82c12.46,0,20.62,9.21,20.62,21.59
	C508.83,141.54,508.74,142.75,508.56,143.94L508.56,143.94z M474.51,138.15h26.77c-0.7-7.37-5.35-12.81-12.99-12.81
	C480.39,125.33,475.65,130.86,474.51,138.15L474.51,138.15z M551.24,155.38c-3.51,5.18-9.13,8.34-15.88,8.34
	c-12.64,0-21.68-9.39-21.68-22.21c0-13.07,9.04-22.64,21.68-22.64c6.76,0,12.38,3.25,15.88,8.51v-21.55l7.2,4.4v52.58h-7.2V155.38
	L551.24,155.38z M521.05,141.42c0,8.95,6.23,15.54,15.01,15.54c8.86,0,15.18-6.58,15.18-15.54c0-9.13-6.32-15.8-15.18-15.8
	C527.28,125.63,521.05,132.29,521.05,141.42L521.05,141.42z M374.94,148.43c0,6.06,3.69,8.43,8.34,8.43
	c3.61,0.04,7.15-1.07,10.09-3.16v6.93c-2.99,2.19-7.11,3.07-10.71,3.07c-9.22,0-14.83-4.13-14.83-15.8v-42.08l7.11,4.39
	L374.94,148.43L374.94,148.43z M386.43,118.97c-2.54-1.65-5.94-0.93-7.59,1.62c-1.65,2.54-0.93,5.94,1.62,7.59l0.15,0.1
	c1.8,1.15,4.11,1.15,5.92,0l7.07-4.53L386.43,118.97z M208.4,94.44c5.09,0,8.78-2.19,8.78-6.14c0-2.37-1.23-4.21-4.48-5.53
	l-10.27-4.12c-5.27-2.28-8.16-5.27-8.16-10.88c0-7.55,6.06-12.29,14.83-12.29c5.09,0,9.83,1.4,13.16,3.95v7.47
	c-3.95-3.51-8.78-5.53-13.07-5.53c-4.57,0-7.81,2.11-7.81,5.62c0,2.63,1.23,4.21,4.65,5.53l10.27,4.13
	c5.53,2.37,8.08,5.7,8.08,10.36c0,8.25-6.67,13.34-16.06,13.34c-5.71,0-10.89-1.58-14.66-4.39v-7.73
	C198.21,92.51,203.31,94.44,208.4,94.44L208.4,94.44z M237.89,85.05c0,6.06,3.68,8.43,8.34,8.43c3.61,0.03,7.14-1.07,10.08-3.16
	v6.93c-2.99,2.19-7.11,3.07-10.71,3.07c-9.22,0-14.83-4.12-14.83-15.8V46.8l7.11-4.4L237.89,85.05L237.89,85.05z M296.08,92.16
	c-3.6,5.09-9.13,8.16-15.89,8.16c-12.64,0-21.68-9.39-21.68-22.21c0-13.07,9.04-22.64,21.68-22.64c6.76,0,12.29,3.16,15.89,8.34
	v-7.54h7.2v43.26h-7.2V92.16L296.08,92.16z M265.88,78.03c0,8.95,6.23,15.53,15.01,15.53c8.87,0,15.18-6.58,15.18-15.53
	c0-9.13-6.32-15.8-15.18-15.8C272.12,62.23,265.88,68.9,265.88,78.03z M321.44,99.53h-7.11V56.27h7.11v7.37
	c3.25-5,8.43-8.16,15.01-8.16c10.88,0,16.68,7.99,16.68,18.61v25.45h-7.2V75.32c0-8.43-3.69-12.9-11.23-12.9
	c-7.99,0-13.26,6.85-13.26,15.45L321.44,99.53L321.44,99.53z M397.27,91.99c-3.51,5.18-9.13,8.34-15.89,8.34
	c-12.64,0-21.68-9.39-21.68-22.21c0-13.07,9.04-22.64,21.68-22.64c6.76,0,12.38,3.25,15.89,8.51V46.8l7.2-4.39v57.13h-7.2V91.99z
	 M367.08,78.03c0,8.95,6.23,15.53,15.01,15.53c8.87,0,15.18-6.58,15.18-15.53c0-9.13-6.32-15.8-15.18-15.8
	C373.32,62.23,367.08,68.9,367.08,78.03z M528.93,91.99c-3.51,5.18-9.13,8.34-15.89,8.34c-12.64,0-21.68-9.39-21.68-22.21
	c0-13.07,9.04-22.64,21.68-22.64c6.76,0,12.38,3.25,15.89,8.51V46.8l7.2-4.39v57.13h-7.2V91.99z M498.73,78.03
	c0,8.95,6.23,15.53,15.01,15.53c8.86,0,15.18-6.58,15.18-15.53c0-9.13-6.32-15.8-15.18-15.8C504.97,62.23,498.73,68.9,498.73,78.03
	L498.73,78.03z M449.76,92.16c-3.6,5.09-9.13,8.16-15.89,8.16c-12.64,0-21.68-9.39-21.68-22.21c0-13.07,9.04-22.64,21.68-22.64
	c6.76,0,12.29,3.16,15.89,8.34v-7.54h7.2v43.26h-7.2V92.16L449.76,92.16z M419.57,78.03c0,8.95,6.23,15.53,15.01,15.53
	c8.86,0,15.18-6.58,15.18-15.53c0-9.13-6.32-15.8-15.18-15.8C425.79,62.23,419.57,68.9,419.57,78.03z M475.12,99.53h-7.11V56.27
	h7.11v9.22c3.42-6.41,8.95-10.01,15.8-10.01v8.16c-8.6-1.23-15.8,4.56-15.8,15.27V99.53L475.12,99.53z M247.91,65.49
	c2.54,1.66,5.95,0.94,7.6-1.6c0.4-0.61,0.67-1.3,0.8-2.02c0.26-1.44-0.06-2.92-0.9-4.12c-0.41-0.59-0.94-1.1-1.55-1.49l-0.15-0.09
	c-1.81-1.15-4.12-1.14-5.92,0.02l-7.07,4.55L247.91,65.49z"/>
</svg>
