<?xml version="1.0" encoding="utf-8"?>
<!-- Generator: Adobe Illustrator 27.6.1, SVG Export Plug-In . SVG Version: 6.00 Build 0)  -->
<svg version="1.1"
	 id="svg2" xmlns:dc="http://purl.org/dc/elements/1.1/" xmlns:cc="http://creativecommons.org/ns#" xmlns:rdf="http://www.w3.org/1999/02/22-rdf-syntax-ns#" xmlns:svg="http://www.w3.org/2000/svg"
	 xmlns="http://www.w3.org/2000/svg" xmlns:xlink="http://www.w3.org/1999/xlink" x="0px" y="0px" viewBox="0 0 800 216.54"
	 style="enable-background:new 0 0 800 216.54;" xml:space="preserve">
<style type="text/css">
	.st0{fill-rule:evenodd;clip-rule:evenodd;fill:#001AFF;}
</style>
<path class="st0" d="M787.07,207.01c0-0.41-0.27-0.68-0.54-0.95s-0.68-0.27-1.22-0.27c-0.54,0-0.68,0-0.95,0.14
	c-0.27,0-0.41,0.27-0.54,0.41c-0.14,0.14-0.14,0.41-0.14,0.68s0,0.41,0.14,0.54s0.27,0.27,0.41,0.41c0.14,0,0.27,0,0.54,0.27
	c0.14,0,0.41,0,0.54,0l0.82,0.27c0.41,0,0.68,0,0.95,0.27c0.27,0,0.54,0.27,0.82,0.54c0.27,0.27,0.41,0.41,0.54,0.82
	c0.14,0.27,0.27,0.68,0.27,1.09c0,0.41-0.14,0.95-0.41,1.36c-0.27,0.41-0.68,0.68-1.22,0.95s-1.09,0.41-1.91,0.41s-1.36,0-1.91-0.27
	s-0.95-0.54-1.22-0.95c-0.27-0.41-0.41-0.95-0.54-1.5h1.63c0,0.27,0.14,0.54,0.27,0.82c0.14,0.27,0.41,0.41,0.68,0.41s0.54,0,0.95,0
	s0.68,0,0.95,0s0.54-0.27,0.68-0.41c0.14-0.14,0.27-0.41,0.27-0.68s-0.14-0.41-0.27-0.54s-0.27-0.27-0.54-0.41
	c-0.27,0-0.54,0-0.82-0.27l-1.09-0.27c-0.82,0-1.36-0.54-1.77-0.95c-0.41-0.41-0.68-0.95-0.68-1.63c0-0.68,0.14-0.95,0.41-1.36
	c0.27-0.41,0.68-0.68,1.22-0.95s1.09-0.27,1.77-0.27c0.68,0,1.22,0,1.77,0.27c0.54,0.27,0.82,0.54,1.22,0.95
	c0.27,0.41,0.41,0.82,0.41,1.36h-1.5v-0.41l0,0L787.07,207.01z M798.09,204.42l-2.86,6.81l-2.86-6.81h-1.91v9.25h1.63v-6.26
	l2.72,6.26h0.82l2.72-6.26v6.26H800v-9.25H798.09z"/>
<path class="st0" d="M260.77,88.74V66.83c12.79,8.85,28.45,12.93,38.65,12.93c10.21,0,20.42-2.45,20.42-10.21s-3.67-7.08-10.75-9.12
	l-19.87-5.17c-14.56-3.81-28.04-8.85-28.04-26.4S282.68,0,302.96,0c20.28,0,19.87,1.5,29.94,5.31V24.5
	c-11.98-4.63-23.41-5.99-33.34-5.99c-9.94,0-18.37,2.59-18.37,8.3s3.27,6.26,11.43,8.44l20.96,5.44
	c16.47,4.36,26.27,11.98,26.27,27.08S321.88,98.4,299.97,98.4c-16.06-0.14-28.04-3.13-39.06-9.94l0,0L260.77,88.74z M375.77,95.41
	h20.42V21.1h31.44V2.31h-83.29V21.1h31.44V95.41L375.77,95.41z M543.99,95.41h20.42V21.1h31.44V2.31h-83.29V21.1h31.44V95.41
	L543.99,95.41L543.99,95.41z M417.42,95.41h22.18l8.85-22.18h43.01l9.12,22.18h22.05L483.02,2.18h-25.86l-39.61,93.23l0,0H417.42z
	 M455.67,55.26l11.98-31.44H472l11.98,31.44H455.67z M610,95.41h71.18V76.62h-51.45V57.16h42.87V38.38h-42.87V21.1h49.68V2.31H610
	v93.23l0,0V95.41z M299.83,216.26c21.91,0,39.88-11.3,39.88-30.62s-9.66-22.59-26.27-27.08l-20.96-5.44
	c-8.3-2.18-11.43-4.49-11.43-8.44s6.53-8.3,18.37-8.3c11.84,0,21.37,1.36,33.34,5.99v-19.19c-10.07-3.81-20.14-5.31-29.94-5.31
	c-20.55,0-41.78,7.49-41.78,28.85s13.47,22.59,28.04,26.4l19.87,5.17c7.08,1.91,10.75,4.36,10.75,9.12
	c0,7.76-8.57,10.21-20.42,10.21c-11.84,0-25.72-4.08-38.65-12.93v22.05c10.89,6.81,22.86,9.66,39.06,9.8l0,0L299.83,216.26z
	 M375.77,213.27h20.42v-74.31h31.44v-18.92h-83.29v18.78h31.44V213.27L375.77,213.27z M737.12,213.27h20.42v-74.31h31.3v-18.92
	h-83.29v18.78h31.44v74.45H737.12L737.12,213.27z M536.51,213.27h71.18v-18.78h-51.45v-19.46h42.87v-18.78h-42.87v-17.28h49.68
	v-18.92h-69.41v93.37l0,0V213.27z M622.8,213.27h71.18v-18.78h-51.45v-19.46h42.87v-18.78h-42.87v-17.28h49.68v-18.92H622.8v93.37
	l0,0V213.27z M441.78,213.27h20.01v-33.34h15.52l24.91,33.34h24.09l-26.54-35.66c13.47-3.81,20.69-13.34,20.69-27.49
	s-12.93-30.08-36.47-30.08h-42.19L441.78,213.27L441.78,213.27L441.78,213.27z M461.79,161.28v-22.46h24.5
	c8.3,0,13.47,4.36,13.47,11.3s-5.04,11.16-13.47,11.16H461.79z"/>
<path class="st0" d="M102.76,25.31c33.75-11.7,69.41-24.5,112.69-24.5v29.94c-37.84,0-69.14,11.16-103.03,22.86
	C79.07,65.33,43.28,78.12,0,78.12V48.18C37.84,48.18,69.14,37.02,102.76,25.31L102.76,25.31L102.76,25.31z M0,93.09h215.45v30.21H0
	V93.09L0,93.09z M0,185.64c37.84,0,69.14-11.16,102.76-22.86c33.75-11.7,69.41-24.5,112.69-24.5v29.94
	c-37.84,0-69.14,11.16-103.03,22.86c-33.48,11.7-69.14,24.5-112.42,24.5L0,185.64L0,185.64L0,185.64z"/>
</svg>
