<?xml version="1.0" encoding="UTF-8"?>
<svg id="svg2" xmlns="http://www.w3.org/2000/svg" version="1.1" xmlns:cc="http://creativecommons.org/ns#" xmlns:dc="http://purl.org/dc/elements/1.1/" xmlns:rdf="http://www.w3.org/1999/02/22-rdf-syntax-ns#" xmlns:svg="http://www.w3.org/2000/svg" viewBox="0 0 800 414">
  <!-- Generator: Adobe Illustrator 29.0.1, SVG Export Plug-In . SVG Version: 2.1.0 Build 192)  -->
  <defs>
    <style>
      .st0 {
        fill: #001aff;
        fill-rule: evenodd;
      }
    </style>
  </defs>
  <path class="st0" d="M684.4,279.6c0-.3-.2-.5-.4-.7-.2-.2-.5-.2-.9-.2s-.5,0-.7.1c-.2,0-.3.2-.4.3s-.1.3-.1.5,0,.3.1.4.2.2.3.3c.1,0,.2,0,.4.2.1,0,.3,0,.4,0l.6.2c.3,0,.5,0,.7.2.2,0,.4.2.6.4.2.2.3.3.4.6.1.2.2.5.2.8s-.1.7-.3,1c-.2.3-.5.5-.9.7-.4.2-.8.3-1.4.3s-1,0-1.4-.2c-.4-.2-.7-.4-.9-.7-.2-.3-.3-.7-.4-1.1h1.2c0,.2.1.4.2.6s.3.3.5.3c.2,0,.4,0,.7,0s.5,0,.7,0c.2,0,.4-.2.5-.3s.2-.3.2-.5-.1-.3-.2-.4-.2-.2-.4-.3c-.2,0-.4,0-.6-.2l-.8-.2c-.6,0-1-.4-1.3-.7-.3-.3-.5-.7-.5-1.2s.1-.7.3-1c.2-.3.5-.5.9-.7.4-.2.8-.2,1.3-.2s.9,0,1.3.2c.4.2.6.4.9.7.2.3.3.6.3,1h-1.1v-.3h0ZM692.5,277.7l-2.1,5-2.1-5h-1.4v6.8h1.2v-4.6l2,4.6h.6l2-4.6v4.6h1.2v-6.8h-1.4Z"/>
  <path class="st0" d="M297.7,192.7v-16.1c9.4,6.5,20.9,9.5,28.4,9.5s15-1.8,15-7.5-2.7-5.2-7.9-6.7l-14.6-3.8c-10.7-2.8-20.6-6.5-20.6-19.4s15.8-21.2,30.7-21.2,14.6,1.1,22,3.9v14.1c-8.8-3.4-17.2-4.4-24.5-4.4s-13.5,1.9-13.5,6.1,2.4,4.6,8.4,6.2l15.4,4c12.1,3.2,19.3,8.8,19.3,19.9s-13.2,22.5-29.3,22.5c-11.8-.1-20.6-2.3-28.7-7.3h0ZM382.2,197.6h15v-54.6h23.1v-13.8h-61.2v13.8h23.1v54.6h0ZM505.8,197.6h15v-54.6h23.1v-13.8h-61.2v13.8h23.1v54.6h0ZM412.8,197.6h16.3l6.5-16.3h31.6l6.7,16.3h16.2l-29.1-68.5h-19l-29.1,68.5h0ZM440.9,168.1l8.8-23.1h3.2l8.8,23.1h-20.8ZM554.3,197.6h52.3v-13.8h-37.8v-14.3h31.5v-13.8h-31.5v-12.7h36.5v-13.8h-51v68.5h0ZM326.4,286.4c16.1,0,29.3-8.3,29.3-22.5s-7.1-16.6-19.3-19.9l-15.4-4c-6.1-1.6-8.4-3.3-8.4-6.2s4.8-6.1,13.5-6.1,15.7,1,24.5,4.4v-14.1c-7.4-2.8-14.8-3.9-22-3.9-15.1,0-30.7,5.5-30.7,21.2s9.9,16.6,20.6,19.4l14.6,3.8c5.2,1.4,7.9,3.2,7.9,6.7,0,5.7-6.3,7.5-15,7.5s-18.9-3-28.4-9.5v16.2c8,5,16.8,7.1,28.7,7.2h0ZM382.2,284.2h15v-54.6h23.1v-13.9h-61.2v13.8h23.1v54.7h0ZM647.7,284.2h15v-54.6h23v-13.9h-61.2v13.8h23.1v54.7h.1ZM500.3,284.2h52.3v-13.8h-37.8v-14.3h31.5v-13.8h-31.5v-12.7h36.5v-13.9h-51v68.6h0ZM563.7,284.2h52.3v-13.8h-37.8v-14.3h31.5v-13.8h-31.5v-12.7h36.5v-13.9h-51v68.6h0ZM430.7,284.2h14.7v-24.5h11.4l18.3,24.5h17.7l-19.5-26.2c9.9-2.8,15.2-9.8,15.2-20.2s-9.5-22.1-26.8-22.1h-31v68.5h0ZM445.4,246v-16.5h18c6.1,0,9.9,3.2,9.9,8.3s-3.7,8.2-9.9,8.2h-18Z"/>
  <path class="st0" d="M181.6,146.1c24.8-8.6,51-18,82.8-18v22c-27.8,0-50.8,8.2-75.7,16.8-24.5,8.6-50.8,18-82.6,18v-22c27.8,0,50.8-8.2,75.5-16.8h0ZM106.1,195.9h158.3v22.2H106.1v-22.2h0ZM106.1,263.9c27.8,0,50.8-8.2,75.5-16.8,24.8-8.6,51-18,82.8-18v22c-27.8,0-50.8,8.2-75.7,16.8-24.6,8.6-50.8,18-82.6,18v-22h0Z"/>
</svg>