<?xml version="1.0" encoding="utf-8"?>
<!-- Generator: Adobe Illustrator 27.6.1, SVG Export Plug-In . SVG Version: 6.00 Build 0)  -->
<svg version="1.1"
	 id="svg2" xmlns:dc="http://purl.org/dc/elements/1.1/" xmlns:cc="http://creativecommons.org/ns#" xmlns:rdf="http://www.w3.org/1999/02/22-rdf-syntax-ns#" xmlns:svg="http://www.w3.org/2000/svg"
	 xmlns="http://www.w3.org/2000/svg" xmlns:xlink="http://www.w3.org/1999/xlink" x="0px" y="0px" viewBox="0 0 592.1 196.7"
	 style="enable-background:new 0 0 592.1 196.7;" xml:space="preserve">
<style type="text/css">
	.st0{fill-rule:evenodd;clip-rule:evenodd;fill:#040C17;}
</style>
<path class="st0" d="M38.3,163.5c-15.8,0-26.3-2.4-34-6.2L0,130.6h3.4l3.4,6.7c8.1,15.3,17.7,22,33.5,22s28.3-9.1,28.3-23.4
	s-7.2-19.6-28.7-26.7C15.5,101.1,3.5,91.5,3.5,71s19.2-36.3,42.6-36.3s23.5,1.9,31.6,5.3L82,68.2h-3.4l-3.4-6.7
	c-7.2-15.3-16.3-22-30.7-22S21,48.6,21,61s7.2,19.1,27.3,25.8c26.8,9.1,37.8,19.1,37.8,39.6c-0.5,22-22,37.2-47.9,37.2l0,0
	L38.3,163.5z"/>
<path class="st0" d="M149.5,153c-7.1,6.7-15.2,10.5-24.6,10.5c-14.2,0-21.3-6.7-21.3-21.4V83H90.8v-3.3l13.7-5.2l13.7-27.6h5.7V75
	h23.7v8.1h-23.7v58.1c0,8.6,4.3,12.9,11.4,12.9s8.1-1.4,12.3-4.3l1.9,3.3l0,0L149.5,153z"/>
<path class="st0" d="M199.3,164.2c-25.8,0-44.4-16.3-44.4-46.9s18.6-45.4,44.9-45.4s44.4,16.3,44.4,46.9S225.6,164.2,199.3,164.2
	L199.3,164.2z M196.9,76.7c-12.4,0-19.6,9.6-19.6,35.9s9.1,47.4,24.3,47.4s19.6-9.6,19.6-35.9C221.7,95.4,212.6,76.7,196.9,76.7
	L196.9,76.7L196.9,76.7z"/>
<path class="st0" d="M353,162h-44.9v-2.8l2.9-0.5c8.1-1.4,9.5-3.8,9.5-19.9v-34.7c0-13.3-5.7-19.9-16.2-19.9s-13.4,2.8-18.6,6.6v48
	c0,16.1,1.4,18.5,9.5,19.9l2.9,0.5v2.8h-44.9v-2.8l3.3-0.5c7.2-1,9.1-3.8,9.1-21.4V98.8c0-9.5-1.4-11.9-8.1-15.2l-4.3-2.4v-1.9
	l30.5-6.6l2.4,1.4v12.3c9.5-8.1,18.6-13.8,30.1-13.8c16.2,0,25.3,9,25.3,27.1v37c0,18,1.4,19.9,9.1,21.4l3.3,0.5l-1,3.3l0,0L353,162
	z"/>
<path class="st0" d="M378.8,110.2v1.4c0.5,25.3,14.3,40.7,32.3,40.7s17.1-3.8,24.7-11.5l2.4,1.9c-9.5,13.4-21.9,21.5-38,21.5
	c-23.3,0-40.9-16.3-40.9-43.5s22.3-48.8,43.7-48.8c21.4,0,35.2,13.4,35.6,37.8l-59.9,0.5l0,0H378.8z M417.3,104.9
	c-0.5-18.7-7.1-28.2-17.6-28.2s-19.5,10.5-20.9,28.2H417.3z"/>
<path class="st0" d="M568.4,162c-3.3,0-19-0.5-25.2-0.5S517,162,513.7,162v-2.4l5.7-1c5.2-1,7.6-2.4,7.6-5.7c0-3.3-1.9-6.2-5.7-12.4
	L501.8,110l-19.5,27.2c-4.8,6.2-6.7,11.5-6.7,14.8s1.9,5.7,7.6,6.7l5.7,1v2.4c-3.3,0-17.1-0.5-23.8-0.5s-16.7,0.5-19.5,0.5v-2.4
	l2.9-0.5c8.1-1.4,15.2-8.1,21.4-15.7l28.6-37.7l-28.6-41.5c-6.7-9.5-11.4-14.3-18.1-15.3l-3.8-0.5v-2.4c3.3,0,19,0.5,25.2,0.5
	s26.2-0.5,29.5-0.5v2.4l-5.7,1c-4.8,0.5-7.6,2.4-7.6,5.7s1.9,6.2,5.7,12.4l17.1,26.2l16.7-23.4c4.3-6.2,6.7-11.5,6.7-14.3
	s-2.4-5.7-7.6-6.7l-5.7-1V46c3.3,0,17.1,0.5,23.8,0.5s16.7-0.5,19.5-0.5v2.4l-2.9,0.5c-8.1,1.4-15.2,7.6-21.4,15.7l-25.7,33.9
	l30.9,45.8c6.7,9.5,11.4,14.3,18.1,15.3l3.8,0.5L568.4,162L568.4,162z"/>
<path class="st0" d="M582.5,64.3c-1.4,0-2.9-0.5-3.8-1c-1-0.5-2.4-1-2.9-1.9c-1-1-1.4-1.9-1.9-2.9s-1-2.4-1-3.8c0-1.4,0.5-2.4,1-3.8
	c0.5-1,1-2.4,1.9-2.9c1-0.5,1.9-1.4,2.9-1.9s2.4-1,3.8-1s2.4,0.5,3.8,1c1,0.5,2.4,1,2.9,1.9c1,1,1.4,1.9,1.9,2.9s1,2.4,1,3.8
	c0,1.4-0.5,2.4-1,3.8c-0.5,1-1,2.4-1.9,2.9c-1,1-1.9,1.4-2.9,1.9C585.3,64.3,583.9,64.3,582.5,64.3L582.5,64.3z M582.5,63.4
	c1,0,2.4,0,3.3-0.5c1-0.5,1.9-1,2.4-1.9c1-1,1.4-1.4,1.9-2.9c0.5-1,0.5-1.9,0.5-3.3s0-2.4-0.5-3.3c-0.5-1-1-1.9-1.9-2.4
	c-1-0.5-1.4-1.4-2.4-1.9s-1.9-0.5-3.3-0.5s-2.4,0-3.3,0.5c-1,0.5-1.9,1-2.4,1.9c-0.5,1-1.4,1.4-1.9,2.4s-0.5,1.9-0.5,3.3
	s0,2.4,0.5,3.3c0.5,1,1,1.9,1.9,2.9c1,1,1.4,1.4,2.4,1.9C580.6,62.9,581.6,63.4,582.5,63.4L582.5,63.4z M578.2,60.5V49.1h4.8
	c1.4,0,2.4,0.5,2.9,1s1,1.4,1,2.4s-0.5,1.9-1,2.4s-1.4,1-2.9,1h0.5c0.5,0,1,0,1.4,0.5c0.5,0,0.5,0.5,1,1l1.9,3.3h-2.9l-1.9-3.8
	c0-0.5-0.5-0.5-0.5-0.5h-1.9v4.3h-2.4L578.2,60.5z M580.6,54.3h2.4c0.5,0,1,0,1.4-0.5c0.33-0.33,0.5-0.8,0.5-1.4s-0.17-1.07-0.5-1.4
	c-0.5-0.5-1-0.5-1.4-0.5h-2.4V54.3L580.6,54.3L580.6,54.3z"/>
</svg>
